<svg width="40" height="40" viewBox="0 0 40 40" fill="none" xmlns="http://www.w3.org/2000/svg">
<g clip-path="url(#clip0_6748_33262)">
<path d="M20.0004 40.0008C31.0463 40.0008 40.0008 31.0463 40.0008 20.0004C40.0008 8.95448 31.0463 0 20.0004 0C8.95448 0 0 8.95448 0 20.0004C0 31.0463 8.95448 40.0008 20.0004 40.0008Z" fill="url(#paint0_linear_6748_33262)"/>
<path d="M24.1395 19.0563C25.5045 19.0609 26.8711 19.0985 28.2354 19.0632C29.9226 19.0195 31.2462 19.6944 32.1695 21.0694C32.6166 21.7351 32.7831 22.5418 32.7831 23.3624C32.7831 25.443 32.7961 27.5235 32.7754 29.6041C32.7585 31.3066 31.6205 32.5758 29.9786 32.7828C28.4977 32.9692 27.0398 31.9523 26.638 30.4477C26.5627 30.1769 26.5278 29.8965 26.5345 29.6156C26.5406 29.43 26.5 29.3411 26.286 29.3449C25.4179 29.3595 24.5505 29.3572 23.6824 29.3618L14.5611 29.3495C14.229 29.3495 13.8287 29.2398 13.5833 29.3863C13.3203 29.5443 13.4736 29.9891 13.4115 30.3066C13.1255 31.7675 11.7374 32.8572 10.2174 32.7959C8.71357 32.7345 7.42444 31.5489 7.26646 30.0773C7.17213 29.1976 7.23272 28.3134 7.22505 27.4346C7.21431 26.1194 7.23195 24.8026 7.21968 23.4874C7.20741 22.1722 7.65297 21.0579 8.62001 20.1614C8.72161 20.0663 8.7951 19.945 8.83244 19.811C9.44595 17.9053 10.0779 16.0064 10.673 14.0954C10.8578 13.4972 11.0434 12.9075 11.4468 12.4236C11.7205 12.0833 12.0682 11.8098 12.4633 11.6238C12.8585 11.4377 13.2908 11.3441 13.7275 11.3499C15.8349 11.3392 17.9453 11.3499 20.0512 11.3415C20.312 11.3415 20.427 11.389 20.358 11.6835C20.2621 12.0969 20.2813 12.5271 20.3189 12.9427C20.3503 13.2863 20.2253 13.3331 19.9208 13.3308C17.9154 13.317 15.9093 13.3231 13.9039 13.3231C13.1884 13.3231 12.9383 13.5095 12.719 14.192C12.2274 15.7212 11.7382 17.2519 11.2351 18.7772C11.1546 19.0226 11.1921 19.0755 11.4514 19.0755C15.6166 19.0673 19.7815 19.0645 23.9462 19.0671C24.0122 19.0686 24.0758 19.0602 24.1395 19.0563ZM22.9362 27.0366C24.8373 27.0366 26.7385 27.0596 28.6388 27.0366C29.6542 27.0258 30.4356 26.2068 30.4793 25.1539C30.5039 24.5296 30.5062 23.9023 30.4793 23.2781C30.4371 22.2244 29.6764 21.3892 28.6986 21.3808C26.4156 21.3608 24.1318 21.3808 21.848 21.3808C18.3372 21.3808 14.8257 21.3662 11.3148 21.3808C10.4567 21.3808 9.70439 22.0817 9.57172 22.9353C9.46205 23.6324 9.52417 24.3371 9.52724 25.0381C9.53261 26.2405 10.3524 27.0427 11.5595 27.0465C12.8364 27.0511 14.1132 27.0465 15.3939 27.0465L22.9362 27.0366ZM11.176 29.5673C11.2527 29.374 11.0994 29.3372 10.9138 29.305C10.6635 29.264 10.4161 29.2074 10.173 29.1355C9.45285 28.9139 9.43598 28.9254 9.52877 29.7061C9.58629 30.1869 9.95363 30.5221 10.3931 30.4929C10.8325 30.4638 11.1645 30.1056 11.176 29.5696V29.5673ZM30.4855 29.4906C30.4855 28.917 30.4855 28.8993 30.2485 28.9937C29.8592 29.1526 29.4517 29.2629 29.0353 29.3219C28.9064 29.3403 28.8382 29.3779 28.8267 29.5312C28.7922 30.0113 29.1066 30.4308 29.5698 30.4914C30.0085 30.5481 30.3988 30.2276 30.4678 29.7467C30.4784 29.6615 30.4842 29.5757 30.4855 29.4898V29.4906Z" fill="#FDFEFE"/>
<path d="M24.2219 8.2586C25.2695 7.53235 26.4175 7.13511 27.7035 7.20259C28.4932 7.24212 29.2643 7.45663 29.9609 7.83061C30.6576 8.2046 31.2624 8.7287 31.7317 9.36504C32.2011 10.0014 32.5231 10.7341 32.6746 11.5101C32.8261 12.2861 32.8033 13.0861 32.6078 13.8523C31.7136 17.3485 27.6675 18.9904 24.5839 17.0364C24.5194 16.9957 24.4504 16.9597 24.3837 16.9275L24.1536 16.7588C23.1851 15.9321 22.4765 14.9374 22.2287 13.6697C21.8315 11.6367 22.412 9.91584 23.9366 8.5132C24.0325 8.42731 24.1276 8.34295 24.2219 8.2586ZM27.3485 15.5586C29.0824 15.5885 30.4682 14.2549 30.4812 12.5386C30.4935 10.9074 29.1445 9.51245 27.5049 9.50248C25.7227 9.49098 24.4512 10.7563 24.386 12.4627C24.3185 14.2035 25.817 15.5908 27.3485 15.5586Z" fill="#FDFEFE"/>
<path d="M24.1572 16.7588L24.3873 16.9275C24.2692 16.9229 24.1772 16.8884 24.1572 16.7588Z" fill="#047A10"/>
<path d="M21.849 23.5871C22.3705 23.5909 22.892 23.6055 23.4134 23.5948C23.6289 23.5909 23.701 23.6561 23.6964 23.8739C23.6841 24.4338 23.6742 24.9943 23.6964 25.5534C23.7095 25.8471 23.6136 25.9368 23.3329 25.9031C23.1936 25.8951 23.0538 25.8982 22.915 25.9123C20.8444 25.9077 18.7738 25.897 16.7078 25.9069C16.3964 25.9069 16.2837 25.8441 16.3029 25.5143C16.3328 25.0035 16.3328 24.4913 16.3029 23.9805C16.2829 23.6462 16.4049 23.5886 16.7109 23.5909C18.4264 23.6032 20.1373 23.5909 21.849 23.5871Z" fill="#FDFEFE"/>
<path d="M12.3252 24.7474C12.1957 24.747 12.0677 24.7211 11.9483 24.6712C11.8289 24.6213 11.7205 24.5484 11.6292 24.4566C11.538 24.3648 11.4658 24.256 11.4166 24.1362C11.3675 24.0165 11.3424 23.8883 11.3428 23.7589C11.3432 23.6295 11.3691 23.5014 11.419 23.382C11.4689 23.2626 11.5418 23.1542 11.6336 23.063C11.7254 22.9717 11.8342 22.8995 11.9539 22.8503C12.0737 22.8012 12.2019 22.7761 12.3313 22.7765C12.5876 22.7844 12.8307 22.892 13.0089 23.0764C13.1871 23.2607 13.2864 23.5074 13.2856 23.7638C13.2848 24.0202 13.184 24.2662 13.0046 24.4495C12.8253 24.6327 12.5815 24.7388 12.3252 24.7451V24.7474Z" fill="#FDFEFE"/>
<path d="M28.6662 23.7627C28.6658 24.0208 28.5644 24.2685 28.3836 24.4527C28.2029 24.6369 27.9571 24.743 27.6991 24.7482C27.5678 24.7482 27.4378 24.7222 27.3165 24.6718C27.1953 24.6215 27.0852 24.5476 26.9925 24.4545C26.8999 24.3615 26.8266 24.251 26.7767 24.1295C26.7269 24.0081 26.7016 23.8779 26.7022 23.7466C26.7121 23.4884 26.8208 23.2439 27.0057 23.0634C27.1906 22.8829 27.4377 22.7802 27.696 22.7765C27.9545 22.7815 28.2008 22.8875 28.3821 23.0719C28.5635 23.2562 28.6654 23.5042 28.6662 23.7627Z" fill="#FDFEFE"/>
<path d="M26.2365 12.034C26.2365 11.5876 26.245 11.1421 26.2327 10.6958C26.2273 10.4826 26.2956 10.4051 26.5157 10.4097C27.1024 10.4227 27.6883 10.4212 28.2749 10.4097C28.4643 10.4097 28.5679 10.4481 28.5372 10.6582C28.5329 10.7092 28.5329 10.7605 28.5372 10.8116C28.5372 11.3606 28.5372 11.3698 29.0986 11.3852C29.2926 11.3898 29.367 11.4419 29.3631 11.6444C29.3532 12.2433 29.3524 12.8423 29.3631 13.4412C29.367 13.6536 29.2742 13.695 29.0871 13.6935C28.2335 13.6866 27.3792 13.6828 26.5257 13.6935C26.2726 13.6935 26.2289 13.5831 26.2335 13.3699C26.2434 12.9266 26.2365 12.4803 26.2365 12.034Z" fill="#FDFEFE"/>
</g>
<defs>
<linearGradient id="paint0_linear_6748_33262" x1="0" y1="20.0004" x2="40" y2="20.0004" gradientUnits="userSpaceOnUse">
<stop stop-color="#27BF36"/>
<stop offset="1" stop-color="#19D9CD"/>
</linearGradient>
<clipPath id="clip0_6748_33262">
<rect width="40" height="40" fill="white"/>
</clipPath>
</defs>
</svg>
