<svg
  width="52"
  height="46"
  viewBox="0 0 52 46"
  fill="none"
  xmlns="http://www.w3.org/2000/svg"
>
  <g clip-path="url(#clip0_7426_32192)">
    <mask
      id="mask0_7426_32192"
      style="mask-type: alpha"
      maskUnits="userSpaceOnUse"
      x="-12"
      y="-18"
      width="80"
      height="80"
    >
      <rect x="-12" y="-18" width="80" height="80" fill="#D9D9D9" />
    </mask>
    <g mask="url(#mask0_7426_32192)">
      <path
        d="M6.74984 43.6663V46.9163C6.74984 47.8608 6.4165 48.6663 5.74984 49.333C5.08317 49.9997 4.22206 50.333 3.1665 50.333C2.22206 50.333 1.40206 49.9863 0.706504 49.293C0.0131707 48.5975 -0.333496 47.7775 -0.333496 46.833V22.2497L6.49984 2.83301C6.72206 2.05523 7.1665 1.44412 7.83317 0.999674C8.49984 0.555229 9.24984 0.333008 10.0832 0.333008H46.0832C46.8609 0.333008 47.5687 0.569674 48.2065 1.04301C48.8465 1.51412 49.2776 2.11079 49.4998 2.83301L56.3332 22.2497V46.9163C56.3332 47.8608 55.9998 48.6663 55.3332 49.333C54.6665 49.9997 53.8332 50.333 52.8332 50.333C51.8332 50.333 50.9865 49.9863 50.2932 49.293C49.5976 48.5975 49.2498 47.7775 49.2498 46.833V43.6663H6.74984ZM6.6665 17.2497H49.3332L45.0832 5.33301H10.9165L6.6665 17.2497ZM12.9165 34.833C14.0832 34.833 15.0965 34.4019 15.9565 33.5397C16.8187 32.6797 17.2498 31.6386 17.2498 30.4163C17.2498 29.2497 16.8187 28.2363 15.9565 27.3763C15.0965 26.5141 14.0554 26.083 12.8332 26.083C11.6665 26.083 10.6532 26.5141 9.79317 27.3763C8.93095 28.2363 8.49984 29.2775 8.49984 30.4997C8.49984 31.6663 8.93095 32.6797 9.79317 33.5397C10.6532 34.4019 11.6943 34.833 12.9165 34.833ZM43.1665 34.833C44.3332 34.833 45.3465 34.4019 46.2065 33.5397C47.0687 32.6797 47.4998 31.6386 47.4998 30.4163C47.4998 29.2497 47.0687 28.2363 46.2065 27.3763C45.3465 26.5141 44.3054 26.083 43.0832 26.083C41.9165 26.083 40.9032 26.5141 40.0432 27.3763C39.1809 28.2363 38.7498 29.2775 38.7498 30.4997C38.7498 31.6663 39.1809 32.6797 40.0432 33.5397C40.9032 34.4019 41.9443 34.833 43.1665 34.833ZM4.6665 38.6663H51.3332V22.2497H4.6665V38.6663Z"
        fill="#111111"
      />
    </g>
  </g>
  <defs>
    <clipPath id="clip0_7426_32192">
      <rect width="52" height="46" fill="white" />
    </clipPath>
  </defs>
</svg>
