<svg width="49" height="58" viewBox="0 0 49 58" fill="none" xmlns="http://www.w3.org/2000/svg">
<g clip-path="url(#clip0_7426_32196)">
<mask id="mask0_7426_32196" style="mask-type:alpha" maskUnits="userSpaceOnUse" x="-15" y="-6" width="80" height="80">
<rect x="-15" y="-6" width="80" height="80" fill="#D9D9D9"/>
</mask>
<g mask="url(#mask0_7426_32196)">
<path d="M15 53.7051H35C35.7222 53.7051 36.32 53.4571 36.7933 52.9612C37.2644 52.463 37.5 51.8337 37.5 51.0735C37.5 50.3133 37.2644 49.684 36.7933 49.1858C36.32 48.6899 35.7222 48.4419 35 48.4419H15C14.2778 48.4419 13.6811 48.6899 13.21 49.1858C12.7367 49.684 12.5 50.3133 12.5 51.0735C12.5 51.8337 12.7367 52.463 13.21 52.9612C13.6811 53.4571 14.2778 53.7051 15 53.7051ZM15 39.67H35C35.7222 39.67 36.32 39.4209 36.7933 38.9226C37.2644 38.4267 37.5 37.7986 37.5 37.0384C37.5 36.2782 37.2644 35.6489 36.7933 35.1507C36.32 34.6548 35.7222 34.4068 35 34.4068H15C14.2778 34.4068 13.6811 34.6548 13.21 35.1507C12.7367 35.6489 12.5 36.2782 12.5 37.0384C12.5 37.7986 12.7367 38.4267 13.21 38.9226C13.6811 39.4209 14.2778 39.67 15 39.67ZM6 66.863C4.33333 66.863 2.91667 66.2489 1.75 65.0209C0.583334 63.7928 0 62.3016 0 60.5472V6.51208C0 4.75769 0.583334 3.26646 1.75 2.03839C2.91667 0.810325 4.33333 0.196289 6 0.196289H30C30.8333 0.196289 31.6111 0.356523 32.3333 0.676991C33.0556 0.999798 33.6944 1.4536 34.25 2.03839L48.25 16.7752C48.8056 17.36 49.2367 18.0325 49.5433 18.7928C49.8478 19.553 50 20.3717 50 21.2489V60.5472C50 62.3016 49.4167 63.7928 48.25 65.0209C47.0833 66.2489 45.6667 66.863 44 66.863H6ZM30 5.45945H6C5.77778 5.45945 5.55556 5.57641 5.33333 5.81032C5.11111 6.04424 5 6.27816 5 6.51208V60.5472C5 60.7811 5.11111 61.015 5.33333 61.2489C5.55556 61.4828 5.77778 61.5998 6 61.5998H44C44.2222 61.5998 44.4444 61.4828 44.6667 61.2489C44.8889 61.015 45 60.7811 45 60.5472V21.2489H33C32.1667 21.2489 31.4578 20.9413 30.8733 20.3261C30.2911 19.7133 30 18.9682 30 18.091V5.45945ZM5 5.45945V18.091C5 18.9682 5 19.7133 5 20.3261C5 20.9413 5 21.2489 5 21.2489V5.45945V18.091C5 18.9682 5 19.7133 5 20.3261C5 20.9413 5 21.2489 5 21.2489V60.5472V6.51208C5 6.27816 5 6.04424 5 5.81032C5 5.57641 5 5.45945 5 5.45945Z" fill="#111111"/>
</g>
</g>
<defs>
<clipPath id="clip0_7426_32196">
<rect width="49" height="58" fill="white"/>
</clipPath>
</defs>
</svg>
