<svg width="64" height="54" viewBox="0 0 64 54" fill="none" xmlns="http://www.w3.org/2000/svg">
<g clip-path="url(#clip0_7426_32200)">
<mask id="mask0_7426_32200" style="mask-type:alpha" maskUnits="userSpaceOnUse" x="0" y="-10" width="80" height="80">
<rect y="-10" width="80" height="80" fill="#D9D9D9"/>
</mask>
<g mask="url(#mask0_7426_32200)">
<path d="M22 0C25.5 0 28.8194 0.722223 31.9583 2.16667C35.0972 3.61111 37.7778 5.58333 40 8.08333C42.2222 5.58333 44.9028 3.61111 48.0417 2.16667C51.1806 0.722223 54.5 0 58 0C64.1111 0 69.3056 2.13889 73.5833 6.41667C77.8611 10.6944 80 15.8889 80 22C80 24.3333 79.6528 26.6944 78.9583 29.0833C78.2639 31.4722 77.1944 33.8611 75.75 36.25C75.1944 35.5833 74.5694 35.0139 73.875 34.5417C73.1806 34.0694 72.4444 33.6667 71.6667 33.3333C72.7778 31.3889 73.6111 29.4722 74.1667 27.5833C74.7222 25.6944 75 23.8333 75 22C75 17.2778 73.3472 13.2639 70.0417 9.95833C66.7361 6.65278 62.7222 5 58 5C54.9444 5 51.9306 5.90278 48.9583 7.70833C45.9861 9.51389 43 12.25 40 15.9167C37 12.25 34.0139 9.51389 31.0417 7.70833C28.0694 5.90278 25.0556 5 22 5C17.2778 5 13.2639 6.65278 9.95833 9.95833C6.65278 13.2639 5 17.2778 5 22C5 23.8333 5.27778 25.6944 5.83333 27.5833C6.38889 29.4722 7.22222 31.3889 8.33333 33.3333C7.55556 33.6667 6.81944 34.0833 6.125 34.5833C5.43056 35.0833 4.80556 35.6667 4.25 36.3333C2.80556 33.9444 1.73611 31.5417 1.04167 29.125C0.347222 26.7083 0 24.3333 0 22C0 15.8889 2.13889 10.6944 6.41667 6.41667C10.6944 2.13889 15.8889 0 22 0ZM0 63.3333V58.9167C0 56.75 1.16667 55 3.5 53.6667C5.83333 52.3333 8.83333 51.6667 12.5 51.6667C13.2222 51.6667 13.8889 51.6806 14.5 51.7083C15.1111 51.7361 15.7222 51.8056 16.3333 51.9167C15.8889 52.8611 15.5556 53.8194 15.3333 54.7917C15.1111 55.7639 15 56.8056 15 57.9167V63.3333H0ZM20 63.3333V57.9167C20 54.3056 21.8472 51.3889 25.5417 49.1667C29.2361 46.9444 34.0556 45.8333 40 45.8333C46 45.8333 50.8333 46.9444 54.5 49.1667C58.1667 51.3889 60 54.3056 60 57.9167V63.3333H20ZM65 63.3333V57.9167C65 56.8056 64.9028 55.7639 64.7083 54.7917C64.5139 53.8194 64.1944 52.8611 63.75 51.9167C64.3611 51.8056 64.9722 51.7361 65.5833 51.7083C66.1944 51.6806 66.8333 51.6667 67.5 51.6667C71.2222 51.6667 74.2361 52.3333 76.5417 53.6667C78.8472 55 80 56.75 80 58.9167V63.3333H65ZM12.5 49.1667C10.8889 49.1667 9.51389 48.5972 8.375 47.4583C7.23611 46.3194 6.66667 44.9444 6.66667 43.3333C6.66667 41.7222 7.23611 40.3472 8.375 39.2083C9.51389 38.0694 10.8889 37.5 12.5 37.5C14.1111 37.5 15.4861 38.0694 16.625 39.2083C17.7639 40.3472 18.3333 41.7222 18.3333 43.3333C18.3333 44.9444 17.7639 46.3194 16.625 47.4583C15.4861 48.5972 14.1111 49.1667 12.5 49.1667ZM67.5 49.1667C65.8889 49.1667 64.5139 48.5972 63.375 47.4583C62.2361 46.3194 61.6667 44.9444 61.6667 43.3333C61.6667 41.7222 62.2361 40.3472 63.375 39.2083C64.5139 38.0694 65.8889 37.5 67.5 37.5C69.1111 37.5 70.4861 38.0694 71.625 39.2083C72.7639 40.3472 73.3333 41.7222 73.3333 43.3333C73.3333 44.9444 72.7639 46.3194 71.625 47.4583C70.4861 48.5972 69.1111 49.1667 67.5 49.1667ZM40 43.3333C37.2222 43.3333 34.8611 42.3611 32.9167 40.4167C30.9722 38.4722 30 36.1111 30 33.3333C30 30.5 30.9722 28.125 32.9167 26.2083C34.8611 24.2917 37.2222 23.3333 40 23.3333C42.8333 23.3333 45.2083 24.2917 47.125 26.2083C49.0417 28.125 50 30.5 50 33.3333C50 36.1111 49.0417 38.4722 47.125 40.4167C45.2083 42.3611 42.8333 43.3333 40 43.3333Z" fill="#111111"/>
</g>
</g>
<defs>
<clipPath id="clip0_7426_32200">
<rect width="64" height="54" fill="white"/>
</clipPath>
</defs>
</svg>
