<svg width="51" height="51" viewBox="0 0 51 51" fill="none" xmlns="http://www.w3.org/2000/svg">
<g clip-path="url(#clip0_7426_32204)">
<mask id="mask0_7426_32204" style="mask-type:alpha" maskUnits="userSpaceOnUse" x="-12" y="-12" width="80" height="80">
<rect x="-12" y="-12" width="80" height="80" fill="#D9D9D9"/>
</mask>
<g mask="url(#mask0_7426_32204)">
<path d="M30.4998 21.3337H41.4998C42.2221 21.3337 42.8187 21.097 43.2898 20.6237C43.7632 20.1525 43.9998 19.5559 43.9998 18.8337C43.9998 18.1114 43.7632 17.5137 43.2898 17.0403C42.8187 16.5692 42.2221 16.3337 41.4998 16.3337H30.4998C29.7776 16.3337 29.181 16.5692 28.7098 17.0403C28.2365 17.5137 27.9998 18.1114 27.9998 18.8337C27.9998 19.5559 28.2365 20.1525 28.7098 20.6237C29.181 21.097 29.7776 21.3337 30.4998 21.3337ZM30.4998 39.667H41.4998C42.2221 39.667 42.8187 39.4303 43.2898 38.957C43.7632 38.4859 43.9998 37.8892 43.9998 37.167C43.9998 36.4448 43.7632 35.847 43.2898 35.3737C42.8187 34.9025 42.2221 34.667 41.4998 34.667H30.4998C29.7776 34.667 29.181 34.9025 28.7098 35.3737C28.2365 35.847 27.9998 36.4448 27.9998 37.167C27.9998 37.8892 28.2365 38.4859 28.7098 38.957C29.181 39.4303 29.7776 39.667 30.4998 39.667ZM15.6665 24.2503H20.3332C21.2221 24.2503 21.9587 23.9592 22.5432 23.377C23.1254 22.7925 23.4165 22.0559 23.4165 21.167V16.5003C23.4165 15.6114 23.1254 14.8748 22.5432 14.2903C21.9587 13.7081 21.2221 13.417 20.3332 13.417H15.6665C14.7776 13.417 14.0421 13.7081 13.4598 14.2903C12.8754 14.8748 12.5832 15.6114 12.5832 16.5003V21.167C12.5832 22.0559 12.8754 22.7925 13.4598 23.377C14.0421 23.9592 14.7776 24.2503 15.6665 24.2503ZM15.6665 42.5837H20.3332C21.2221 42.5837 21.9587 42.2926 22.5432 41.7103C23.1254 41.1259 23.4165 40.3892 23.4165 39.5003V34.8337C23.4165 33.9448 23.1254 33.2081 22.5432 32.6237C21.9587 32.0414 21.2221 31.7503 20.3332 31.7503H15.6665C14.7776 31.7503 14.0421 32.0414 13.4598 32.6237C12.8754 33.2081 12.5832 33.9448 12.5832 34.8337V39.5003C12.5832 40.3892 12.8754 41.1259 13.4598 41.7103C14.0421 42.2926 14.7776 42.5837 15.6665 42.5837ZM5.6665 56.3337C3.99984 56.3337 2.58317 55.7503 1.4165 54.5837C0.249838 53.417 -0.333496 52.0003 -0.333496 50.3337V5.66699C-0.333496 4.00033 0.249838 2.58366 1.4165 1.41699C2.58317 0.250326 3.99984 -0.333008 5.6665 -0.333008H50.3332C51.9998 -0.333008 53.4165 0.250326 54.5832 1.41699C55.7498 2.58366 56.3332 4.00033 56.3332 5.66699V50.3337C56.3332 52.0003 55.7498 53.417 54.5832 54.5837C53.4165 55.7503 51.9998 56.3337 50.3332 56.3337H5.6665ZM5.6665 51.3337H50.3332C50.5554 51.3337 50.7776 51.2225 50.9998 51.0003C51.2221 50.7781 51.3332 50.5559 51.3332 50.3337V5.66699C51.3332 5.44477 51.2221 5.22255 50.9998 5.00033C50.7776 4.7781 50.5554 4.66699 50.3332 4.66699H5.6665C5.44428 4.66699 5.22206 4.7781 4.99984 5.00033C4.77761 5.22255 4.6665 5.44477 4.6665 5.66699V50.3337C4.6665 50.5559 4.77761 50.7781 4.99984 51.0003C5.22206 51.2225 5.44428 51.3337 5.6665 51.3337Z" fill="#111111"/>
</g>
</g>
<defs>
<clipPath id="clip0_7426_32204">
<rect width="51" height="51" fill="white"/>
</clipPath>
</defs>
</svg>
