<svg xmlns="http://www.w3.org/2000/svg" width="95" height="95" fill="none" xmlns:v="https://vecta.io/nano"><path fill-rule="evenodd" d="M64.438 18.2l7.442 54.274.668 5.445a3.2 3.2 0 0 1-2.786 3.566l-46.848 5.752a3.2 3.2 0 0 1-3.566-2.786l-7.213-58.742a1.6 1.6 0 0 1 1.393-1.783l3.903-.438m3.143-.353l3.67-.412-3.67.412z" fill="#fff"/><path d="M65.676 18.03a1.25 1.25 0 1 0-2.477.34l2.477-.34zm6.203 54.444l1.241-.152-.001-.009-.001-.009-1.238.17zm.668 5.445l1.241-.152-1.241.152zm-2.786 3.566l.152 1.241-.152-1.241zm-46.848 5.752l.152 1.241-.152-1.241zm-3.566-2.786l1.241-.152-1.241.152zm-7.213-58.742l-1.241.152 1.241-.152zm1.41-1.785l.139 1.242-.139-1.242zm4.026.806a1.25 1.25 0 1 0-.279-2.484l.279 2.484zm2.864-2.837a1.25 1.25 0 1 0 .279 2.484l-.279-2.484zm3.948 2.073a1.25 1.25 0 1 0-.279-2.484l.279 2.484zm38.816-5.597l7.442 54.274 2.477-.34-7.442-54.274-2.477.34zm7.439 54.257l.669 5.445 2.481-.305-.669-5.445-2.481.305zm.669 5.445a1.95 1.95 0 0 1-1.698 2.173l.305 2.481a4.45 4.45 0 0 0 3.874-4.959l-2.481.305zm-1.698 2.173l-46.848 5.752.305 2.481 46.848-5.752-.305-2.481zm-46.848 5.752a1.95 1.95 0 0 1-2.173-1.698l-2.481.305a4.45 4.45 0 0 0 4.959 3.874l-.305-2.481zm-2.173-1.698l-7.213-58.742-2.481.305 7.213 58.742 2.481-.305zm-7.213-58.742a.35.35 0 0 1 .305-.39l-.305-2.481a2.85 2.85 0 0 0-2.481 3.176l2.481-.305zm.305-.39l-.275-2.485-.03.004.305 2.481zm.004 0l3.887-.436-.279-2.484-3.887.436.279 2.485zm7.03-.789l3.67-.412-.279-2.484-3.67.412.279 2.484z" fill="#c5c5c5"/><g stroke="#c5c5c5" stroke-width="2.5"><path d="M28.087 11a2.75 2.75 0 0 1 2.75-2.75h35.314a2.75 2.75 0 0 1 1.944.805l10.286 10.279a2.75 2.75 0 0 1 .806 1.945V70.2a2.75 2.75 0 0 1-2.75 2.75h-45.6a2.75 2.75 0 0 1-2.75-2.75V11z" fill="#fff"/><path d="M66.837 8.922V18.2a2.4 2.4 0 0 0 2.4 2.4h6.347" stroke-linecap="round" stroke-linejoin="round"/></g><path d="M36.438 18.1a2.5 2.5 0 0 0-2.5 2.5h2.5v-2.5zm20.8 0h-20.8v2.5h20.8v-2.5zm2.5 2.5a2.5 2.5 0 0 0-2.5-2.5v2.5h2.5zm-2.5 2.5a2.5 2.5 0 0 0 2.5-2.5h-2.5v2.5zm-20.8 0h20.8v-2.5h-20.8v2.5zm-2.5-2.5a2.5 2.5 0 0 0 2.5 2.5v-2.5h-2.5zm2.5 7.101a2.5 2.5 0 0 0-2.5 2.5h2.5v-2.5zm34.4 0h-34.4v2.5h34.4v-2.5zm2.5 2.5a2.5 2.5 0 0 0-2.5-2.5v2.5h2.5zm-2.5 2.5a2.5 2.5 0 0 0 2.5-2.5h-2.5v2.5zm-34.4 0h34.4v-2.5h-34.4v2.5zm-2.5-2.5a2.5 2.5 0 0 0 2.5 2.5v-2.5h-2.5zm2.5 10.399v-2.5a2.5 2.5 0 0 0-2.5 2.5h2.5zm0 0h-2.5a2.5 2.5 0 0 0 2.5 2.5v-2.5zm34.4 0h-34.4v2.5h34.4v-2.5zm0 0v2.5a2.5 2.5 0 0 0 2.5-2.5h-2.5zm0 0h2.5a2.5 2.5 0 0 0-2.5-2.5v2.5zm-34.4 0h34.4v-2.5h-34.4v2.5zm0 7.9a2.5 2.5 0 0 0-2.5 2.5h2.5v-2.5zm34.4 0h-34.4V51h34.4v-2.5zm2.5 2.5a2.5 2.5 0 0 0-2.5-2.5V51h2.5zm-2.5 2.5a2.5 2.5 0 0 0 2.5-2.5h-2.5 0v2.5zm-34.4 0h34.4V51h-34.4v2.5zm-2.5-2.5a2.5 2.5 0 0 0 2.5 2.5V51h0-2.5zm2.5 10.4v-2.5a2.5 2.5 0 0 0-2.5 2.5h2.5zm0 0h-2.5a2.5 2.5 0 0 0 2.5 2.5v-2.5zm20.8 0h-20.8v2.5h20.8v-2.5zm0 0v2.5a2.5 2.5 0 0 0 2.5-2.5h-2.5zm0 0h2.5a2.5 2.5 0 0 0-2.5-2.5v2.5zm-20.8 0h20.8v-2.5h-20.8v2.5z" fill="#dadada"/></svg>