<svg
  width="25"
  height="24"
  viewBox="0 0 24 24"
  fill="none"
  xmlns="http://www.w3.org/2000/svg"
>
  <path
    d="M12 13.5H13V10.5H16V9.5H13V6.5H12V9.5H9V10.5H12V13.5ZM3.5 20.075V4.625C3.5 4.15833 3.65433 3.77067 3.963 3.462C4.271 3.154 4.65833 3 5.125 3H19.875C20.3417 3 20.7293 3.154 21.038 3.462C21.346 3.77067 21.5 4.15833 21.5 4.625V15.375C21.5 15.8417 21.346 16.2293 21.038 16.538C20.7293 16.846 20.3417 17 19.875 17H6.575L3.5 20.075ZM4.5 17.65L6.15 16H19.875C20.0583 16 20.2083 15.9417 20.325 15.825C20.4417 15.7083 20.5 15.5583 20.5 15.375V4.625C20.5 4.44167 20.4417 4.29167 20.325 4.175C20.2083 4.05833 20.0583 4 19.875 4H5.125C4.94167 4 4.79167 4.05833 4.675 4.175C4.55833 4.29167 4.5 4.44167 4.5 4.625V17.65ZM4.5 4.625V15.375C4.5 15.5583 4.5 15.7083 4.5 15.825C4.5 15.9417 4.5 16 4.5 16V17.65V4.625Z"
    fill="#111111"
  />
</svg>
