<svg
  width="25"
  height="24"
  viewBox="0 0 24 24"
  fill="none"
  xmlns="http://www.w3.org/2000/svg"
>
  <path
    d="M4 20.15V7.14999H8V3.14999H17V11.15H21V20.15H14V16.15H11V20.15H4ZM5 19.15H8V16.15H5V19.15ZM5 15.15H8V12.15H5V15.15ZM5 11.15H8V8.14999H5V11.15ZM9 15.15H12V12.15H9V15.15ZM9 11.15H12V8.14999H9V11.15ZM9 7.14999H12V4.14999H9V7.14999ZM13 15.15H16V12.15H13V15.15ZM13 11.15H16V8.14999H13V11.15ZM13 7.14999H16V4.14999H13V7.14999ZM17 19.15H20V16.15H17V19.15ZM17 15.15H20V12.15H17V15.15Z"
    fill="#111111"
  />
</svg>
