<svg
  width="25"
  height="25"
  viewBox="0 0 24 24"
  fill="none"
  xmlns="http://www.w3.org/2000/svg"
>
  <path
    d="M11.075 13.766L8.75 11.441C8.61667 11.291 8.446 11.216 8.238 11.216C8.02933 11.216 7.85 11.291 7.7 11.441C7.55 11.5743 7.475 11.745 7.475 11.953C7.475 12.1617 7.55 12.341 7.7 12.491L10.45 15.241C10.6333 15.4077 10.846 15.491 11.088 15.491C11.3293 15.491 11.5417 15.4077 11.725 15.241L17.275 9.66599C17.4083 9.53266 17.4793 9.36166 17.488 9.15299C17.496 8.94499 17.425 8.76599 17.275 8.61599C17.125 8.46599 16.95 8.39099 16.75 8.39099C16.55 8.39099 16.375 8.46599 16.225 8.61599L11.075 13.766ZM5.8 19.141H19.2C19.2667 19.141 19.3333 19.1077 19.4 19.041C19.4667 18.9743 19.5 18.9077 19.5 18.841V5.44099C19.5 5.37432 19.4667 5.30766 19.4 5.24099C19.3333 5.17432 19.2667 5.14099 19.2 5.14099H5.8C5.73333 5.14099 5.66667 5.17432 5.6 5.24099C5.53333 5.30766 5.5 5.37432 5.5 5.44099V18.841C5.5 18.9077 5.53333 18.9743 5.6 19.041C5.66667 19.1077 5.73333 19.141 5.8 19.141ZM5.8 20.641C5.3 20.641 4.875 20.466 4.525 20.116C4.175 19.766 4 19.341 4 18.841V5.44099C4 4.94099 4.175 4.51599 4.525 4.16599C4.875 3.81599 5.3 3.64099 5.8 3.64099H10.25C10.3167 3.09099 10.5627 2.61999 10.988 2.22799C11.4127 1.83666 11.9167 1.64099 12.5 1.64099C13.1 1.64099 13.6083 1.83666 14.025 2.22799C14.4417 2.61999 14.6833 3.09099 14.75 3.64099H19.2C19.7 3.64099 20.125 3.81599 20.475 4.16599C20.825 4.51599 21 4.94099 21 5.44099V18.841C21 19.341 20.825 19.766 20.475 20.116C20.125 20.466 19.7 20.641 19.2 20.641H5.8ZM12.5 4.49099C12.7167 4.49099 12.896 4.41999 13.038 4.27799C13.1793 4.13666 13.25 3.95766 13.25 3.74099C13.25 3.52432 13.1793 3.34499 13.038 3.20299C12.896 3.06166 12.7167 2.99099 12.5 2.99099C12.2833 2.99099 12.1043 3.06166 11.963 3.20299C11.821 3.34499 11.75 3.52432 11.75 3.74099C11.75 3.95766 11.821 4.13666 11.963 4.27799C12.1043 4.41999 12.2833 4.49099 12.5 4.49099Z"
    fill="#111111"
  />
</svg>
