<svg
  width="24"
  height="24"
  viewBox="0 0 24 24"
  fill="none"
  xmlns="http://www.w3.org/2000/svg"
>
  <g clip-path="url(#clip0_8024_33843)">
    <path
      d="M20.7956 13.385L19.2122 7.68834C18.7481 6.01945 17.7395 4.55358 16.3467 3.52373C14.9539 2.49388 13.2567 1.95916 11.5251 2.00456C9.79351 2.04996 8.12675 2.67288 6.78979 3.7743C5.45284 4.87571 4.52241 6.39243 4.14641 8.08334L2.92057 13.5958C2.78517 14.205 2.7883 14.8367 2.92973 15.4444C3.07117 16.0522 3.34729 16.6204 3.73773 17.1071C4.12816 17.5939 4.62292 17.9867 5.1855 18.2566C5.74808 18.5266 6.36409 18.6667 6.98807 18.6667H7.91641C8.10767 19.6086 8.61868 20.4554 9.36286 21.0637C10.107 21.6719 11.0386 22.0042 11.9997 22.0042C12.9609 22.0042 13.8924 21.6719 14.6366 21.0637C15.3808 20.4554 15.8918 19.6086 16.0831 18.6667H16.7814C17.4237 18.6667 18.0574 18.5183 18.6329 18.2329C19.2083 17.9475 19.71 17.5329 20.0988 17.0216C20.4875 16.5102 20.7527 15.9159 20.8737 15.285C20.9948 14.6542 20.9683 14.0039 20.7964 13.385H20.7956ZM11.9997 20.3333C11.4845 20.3312 10.9825 20.1699 10.5625 19.8716C10.1424 19.5733 9.82481 19.1524 9.65307 18.6667H14.3464C14.1747 19.1524 13.857 19.5733 13.437 19.8716C13.0169 20.1699 12.515 20.3312 11.9997 20.3333ZM18.7714 16.0125C18.5392 16.3206 18.2383 16.5702 17.8927 16.7416C17.5472 16.9131 17.1663 17.0015 16.7806 17H6.98807C6.61373 16.9999 6.24417 16.9158 5.90669 16.7538C5.56921 16.5918 5.27241 16.3561 5.03821 16.0641C4.80401 15.7721 4.63837 15.4312 4.55354 15.0665C4.46871 14.7019 4.46684 14.3229 4.54807 13.9575L5.77307 8.44417C6.06837 7.11601 6.79916 5.92468 7.84929 5.05955C8.89941 4.19442 10.2086 3.70515 11.5687 3.66952C12.9288 3.63389 14.2618 4.05394 15.3558 4.8629C16.4498 5.67186 17.242 6.8233 17.6064 8.13417L19.1897 13.8308C19.2944 14.202 19.311 14.5924 19.2384 14.9711C19.1658 15.3498 19.0059 15.7064 18.7714 16.0125Z"
      fill="#111111"
    />
  </g>
  <defs>
    <clipPath id="clip0_8024_33843">
      <rect width="20" height="20" fill="white" transform="translate(2 2)" />
    </clipPath>
  </defs>
</svg>
