<svg
  width="16"
  height="16"
  viewBox="0 0 16 16"
  fill="none"
  xmlns="http://www.w3.org/2000/svg"
>
  <path
    d="M7.33337 14.6663V11.8997L5.16671 14.033L4.23337 13.0997L7.33337 9.99967V8.66634H6.00004L2.90004 11.7663L1.96671 10.833L4.10004 8.66634H1.33337V7.33301H4.10004L1.96671 5.16634L2.90004 4.23301L6.00004 7.33301H7.33337V5.99967L4.23337 2.89967L5.16671 1.96634L7.33337 4.09967V1.33301H8.66671V4.09967L10.8334 1.96634L11.7667 2.89967L8.66671 5.99967V7.33301H10L13.1 4.23301L14.0334 5.16634L11.9 7.33301H14.6667V8.66634H11.9L14.0334 10.833L13.1 11.7663L10 8.66634H8.66671V9.99967L11.7667 13.0997L10.8334 14.033L8.66671 11.8997V14.6663H7.33337Z"
    fill="#007AFF"
  />
</svg>
