<svg
  width="24"
  height="24"
  viewBox="0 0 24 24"
  fill="none"
  xmlns="http://www.w3.org/2000/svg"
>
  <path
    d="M4 8.4H20V6.3C20 6.23333 19.9667 6.16667 19.9 6.1C19.8333 6.03333 19.7667 6 19.7 6H4.3C4.23333 6 4.16667 6.03333 4.1 6.1C4.03333 6.16667 4 6.23333 4 6.3V8.4ZM2.5 6.3C2.5 5.8 2.675 5.375 3.025 5.025C3.375 4.675 3.8 4.5 4.3 4.5H19.7C20.2 4.5 20.625 4.675 20.975 5.025C21.325 5.375 21.5 5.8 21.5 6.3V11.6H4V17.7C4 17.7667 4.03333 17.8333 4.1 17.9C4.16667 17.9667 4.23333 18 4.3 18H8.675V19.5H4.3C3.8 19.5 3.375 19.325 3.025 18.975C2.675 18.625 2.5 18.2 2.5 17.7V6.3ZM14.8 21.275L10.9 17.375L11.95 16.3L14.8 19.125L20.475 13.45L21.525 14.55L14.8 21.275ZM4 6.3V17.7C4 17.7667 4.03333 17.8333 4.1 17.9C4.16667 17.9667 4.23333 18 4.3 18H4V13.475V16.3V11.6V8.4V6.3C4 6.23333 4 6.16667 4 6.1C4 6.03333 4 6 4 6H4.3C4.23333 6 4.16667 6.03333 4.1 6.1C4.03333 6.16667 4 6.23333 4 6.3Z"
    fill="#111111"
  />
</svg>
