<svg
  width="24"
  height="24"
  viewBox="0 0 24 24"
  fill="none"
  xmlns="http://www.w3.org/2000/svg"
>
  <path
    d="M12 6.00001L9.525 3.55001L10.575 2.47501L12 3.90001L15.55 0.350006L16.6 1.40001L12 6.00001ZM5.625 21.5V22.75C5.625 22.9667 5.55 23.146 5.4 23.288C5.25 23.4293 5.075 23.5 4.875 23.5H4.25C4.03333 23.5 3.85433 23.4293 3.713 23.288C3.571 23.146 3.5 22.9667 3.5 22.75V15.075L5.55 9.25001C5.61667 9.01667 5.75 8.83334 5.95 8.70001C6.15 8.56667 6.375 8.50001 6.625 8.50001H17.425C17.6583 8.50001 17.8707 8.57067 18.062 8.71201C18.254 8.85401 18.3833 9.03334 18.45 9.25001L20.5 15.075V22.75C20.5 22.9667 20.4293 23.146 20.288 23.288C20.146 23.4293 19.9667 23.5 19.75 23.5H19.125C18.925 23.5 18.75 23.4293 18.6 23.288C18.45 23.146 18.375 22.9667 18.375 22.75V21.5H5.625ZM5.6 13.575H18.4L17.125 10H6.875L5.6 13.575ZM7.475 18.85C7.825 18.85 8.129 18.7207 8.387 18.462C8.64567 18.204 8.775 17.8917 8.775 17.525C8.775 17.175 8.64567 16.871 8.387 16.613C8.129 16.3543 7.81667 16.225 7.45 16.225C7.1 16.225 6.796 16.3543 6.538 16.613C6.27933 16.871 6.15 17.1833 6.15 17.55C6.15 17.9 6.27933 18.204 6.538 18.462C6.796 18.7207 7.10833 18.85 7.475 18.85ZM16.55 18.85C16.9 18.85 17.204 18.7207 17.462 18.462C17.7207 18.204 17.85 17.8917 17.85 17.525C17.85 17.175 17.7207 16.871 17.462 16.613C17.204 16.3543 16.8917 16.225 16.525 16.225C16.175 16.225 15.871 16.3543 15.613 16.613C15.3543 16.871 15.225 17.1833 15.225 17.55C15.225 17.9 15.3543 18.204 15.613 18.462C15.871 18.7207 16.1833 18.85 16.55 18.85ZM5 20H19V15.075H5V20Z"
    fill="#111111"
  />
</svg>
