<svg
  width="24"
  height="24"
  viewBox="0 0 24 24"
  fill="none"
  xmlns="http://www.w3.org/2000/svg"
>
  <path
    d="M2.59961 18.625V16.975C2.59961 16.5083 2.72061 16.1083 2.96261 15.775C3.20394 15.4417 3.52461 15.175 3.92461 14.975C4.79128 14.5583 5.65394 14.2293 6.51261 13.988C7.37061 13.746 8.39961 13.625 9.59961 13.625C10.7996 13.625 11.8289 13.746 12.6876 13.988C13.5456 14.2293 14.4079 14.5583 15.2746 14.975C15.6746 15.175 15.9956 15.4417 16.2376 15.775C16.4789 16.1083 16.5996 16.5083 16.5996 16.975V18.625H2.59961ZM17.2496 13.95C17.7329 14.05 18.2039 14.1917 18.6626 14.375C19.1206 14.5583 19.5746 14.7583 20.0246 14.975C20.4579 15.1917 20.7956 15.4707 21.0376 15.812C21.2789 16.154 21.3996 16.525 21.3996 16.925V18.625H18.5996V16.925C18.5996 16.3417 18.4829 15.7917 18.2496 15.275C18.0163 14.7583 17.6829 14.3167 17.2496 13.95ZM9.59961 11.375C8.76628 11.375 8.05794 11.0833 7.47461 10.5C6.89128 9.91667 6.59961 9.20833 6.59961 8.375C6.59961 7.55833 6.89128 6.854 7.47461 6.262C8.05794 5.67067 8.76628 5.375 9.59961 5.375C10.4163 5.375 11.1206 5.67067 11.7126 6.262C12.3039 6.854 12.5996 7.55833 12.5996 8.375C12.5996 9.20833 12.3039 9.91667 11.7126 10.5C11.1206 11.0833 10.4163 11.375 9.59961 11.375ZM16.8746 8.375C16.8746 9.20833 16.5789 9.91667 15.9876 10.5C15.3956 11.0833 14.6913 11.375 13.8746 11.375C13.8246 11.375 13.7663 11.371 13.6996 11.363C13.6329 11.3543 13.5829 11.35 13.5496 11.35C13.8829 10.9333 14.1413 10.4707 14.3246 9.962C14.5079 9.454 14.5996 8.925 14.5996 8.375C14.5996 7.84167 14.5036 7.325 14.3116 6.825C14.1203 6.325 13.8663 5.85833 13.5496 5.425C13.5996 5.40833 13.6496 5.39567 13.6996 5.387C13.7496 5.379 13.8079 5.375 13.8746 5.375C14.6913 5.375 15.3956 5.67067 15.9876 6.262C16.5789 6.854 16.8746 7.55833 16.8746 8.375ZM3.59961 17.625H15.5996V16.975C15.5996 16.7417 15.5413 16.5377 15.4246 16.363C15.3079 16.1877 15.0996 16.0167 14.7996 15.85C14.0496 15.45 13.2623 15.146 12.4376 14.938C11.6123 14.7293 10.6663 14.625 9.59961 14.625C8.53294 14.625 7.58728 14.7293 6.76261 14.938C5.93728 15.146 5.14961 15.45 4.39961 15.85C4.09961 16.0167 3.89128 16.1877 3.77461 16.363C3.65794 16.5377 3.59961 16.7417 3.59961 16.975V17.625ZM9.59961 10.375C10.1496 10.375 10.6206 10.179 11.0126 9.787C11.4039 9.39567 11.5996 8.925 11.5996 8.375C11.5996 7.825 11.4039 7.35433 11.0126 6.963C10.6206 6.571 10.1496 6.375 9.59961 6.375C9.04961 6.375 8.57894 6.571 8.18761 6.963C7.79561 7.35433 7.59961 7.825 7.59961 8.375C7.59961 8.925 7.79561 9.39567 8.18761 9.787C8.57894 10.179 9.04961 10.375 9.59961 10.375Z"
    fill="#111111"
  />
</svg>
