<svg
  width="16"
  height="16"
  viewBox="0 0 16 16"
  fill="none"
  xmlns="http://www.w3.org/2000/svg"
>
  <path
    d="M5.26663 14.5837C4.48885 14.117 3.86107 13.4808 3.38329 12.675C2.90551 11.8697 2.66663 10.9781 2.66663 10.0003C2.66663 8.83366 2.9444 7.79477 3.49996 6.88366C4.05551 5.97255 4.66663 5.20588 5.33329 4.58366C5.99996 3.96144 6.61107 3.48633 7.16663 3.15833C7.72218 2.83077 7.99996 2.66699 7.99996 2.66699V4.86699C7.99996 5.2781 8.13885 5.60299 8.41663 5.84166C8.6944 6.08077 9.00551 6.20033 9.34996 6.20033C9.53885 6.20033 9.71951 6.16144 9.89196 6.08366C10.064 6.00588 10.2222 5.8781 10.3666 5.70033L10.6666 5.33366C11.4666 5.80033 12.1111 6.44744 12.6 7.27499C13.0888 8.10299 13.3333 9.01144 13.3333 10.0003C13.3333 10.9781 13.0944 11.8697 12.6166 12.675C12.1388 13.4808 11.5111 14.117 10.7333 14.5837C10.9222 14.317 11.0695 14.0252 11.1753 13.7083C11.2806 13.3919 11.3333 13.0559 11.3333 12.7003C11.3333 12.2559 11.25 11.8365 11.0833 11.4423C10.9166 11.0477 10.6777 10.6948 10.3666 10.3837L7.99996 8.06699L5.64996 10.3837C5.32774 10.7059 5.08329 11.0614 4.91663 11.4503C4.74996 11.8392 4.66663 12.2559 4.66663 12.7003C4.66663 13.0559 4.71951 13.3919 4.82529 13.7083C4.93063 14.0252 5.07774 14.317 5.26663 14.5837ZM7.99996 14.667C7.4444 14.667 6.97218 14.4752 6.58329 14.0917C6.1944 13.7085 5.99996 13.2448 5.99996 12.7003C5.99996 12.4448 6.04996 12.1977 6.14996 11.959C6.24996 11.7199 6.3944 11.5059 6.58329 11.317L7.99996 9.93366L9.41663 11.317C9.60551 11.5059 9.74996 11.717 9.84996 11.9503C9.94996 12.1837 9.99996 12.4337 9.99996 12.7003C9.99996 13.2448 9.80551 13.7085 9.41663 14.0917C9.02774 14.4752 8.55551 14.667 7.99996 14.667Z"
    fill="#FF3B30"
  />
</svg>
