<svg
  width="25"
  height="24"
  viewBox="0 0 24 24"
  fill="none"
  xmlns="http://www.w3.org/2000/svg"
>
  <path
    d="M12 16.5H13V11H12V16.5ZM12.5 9.575C12.6667 9.575 12.8127 9.51667 12.938 9.4C13.0627 9.28333 13.125 9.13333 13.125 8.95C13.125 8.78333 13.0627 8.64167 12.938 8.525C12.8127 8.40833 12.6667 8.35 12.5 8.35C12.3333 8.35 12.1873 8.40833 12.062 8.525C11.9373 8.64167 11.875 8.78333 11.875 8.95C11.875 9.13333 11.9373 9.28333 12.062 9.4C12.1873 9.51667 12.3333 9.575 12.5 9.575ZM12.5 21C11.25 21 10.075 20.7667 8.975 20.3C7.875 19.8333 6.921 19.196 6.113 18.388C5.30433 17.5793 4.66667 16.625 4.2 15.525C3.73333 14.425 3.5 13.25 3.5 12C3.5 10.75 3.73333 9.575 4.2 8.475C4.66667 7.375 5.30433 6.42067 6.113 5.612C6.921 4.804 7.875 4.16667 8.975 3.7C10.075 3.23333 11.25 3 12.5 3C13.75 3 14.925 3.23333 16.025 3.7C17.125 4.16667 18.0793 4.804 18.888 5.612C19.696 6.42067 20.3333 7.375 20.8 8.475C21.2667 9.575 21.5 10.75 21.5 12C21.5 13.25 21.2667 14.425 20.8 15.525C20.3333 16.625 19.696 17.5793 18.888 18.388C18.0793 19.196 17.125 19.8333 16.025 20.3C14.925 20.7667 13.75 21 12.5 21ZM12.5 20C14.7167 20 16.6043 19.221 18.163 17.663C19.721 16.1043 20.5 14.2167 20.5 12C20.5 9.78333 19.721 7.89567 18.163 6.337C16.6043 4.779 14.7167 4 12.5 4C10.2833 4 8.396 4.779 6.838 6.337C5.27933 7.89567 4.5 9.78333 4.5 12C4.5 14.2167 5.27933 16.1043 6.838 17.663C8.396 19.221 10.2833 20 12.5 20Z"
    fill="#111111"
  />
</svg>
