<svg
  width="24"
  height="24"
  viewBox="0 0 24 24"
  fill="none"
  xmlns="http://www.w3.org/2000/svg"
>
  <path
    d="M12.5 21.641C11.2 21.641 9.97067 21.391 8.812 20.891C7.654 20.391 6.64567 19.7117 5.787 18.853C4.929 17.995 4.25 16.987 3.75 15.829C3.25 14.6703 3 13.441 3 12.141C3 10.8243 3.25 9.59099 3.75 8.44099C4.25 7.29099 4.929 6.28666 5.787 5.42799C6.64567 4.56999 7.654 3.89099 8.812 3.39099C9.97067 2.89099 11.2 2.64099 12.5 2.64099C13.8167 2.64099 15.05 2.89099 16.2 3.39099C17.35 3.89099 18.354 4.56999 19.212 5.42799C20.0707 6.28666 20.75 7.29099 21.25 8.44099C21.75 9.59099 22 10.8243 22 12.141C22 13.441 21.75 14.6703 21.25 15.829C20.75 16.987 20.0707 17.995 19.212 18.853C18.354 19.7117 17.35 20.391 16.2 20.891C15.05 21.391 13.8167 21.641 12.5 21.641ZM16.175 8.46599H19.575C19.0417 7.41599 18.3377 6.54499 17.463 5.85299C16.5877 5.16166 15.575 4.68266 14.425 4.41599C14.8083 4.99932 15.15 5.63666 15.45 6.32799C15.75 7.01999 15.9917 7.73266 16.175 8.46599ZM10.35 8.46599H14.65C14.4167 7.63266 14.121 6.86166 13.763 6.15299C13.4043 5.44499 12.9833 4.78266 12.5 4.16599C12.0167 4.78266 11.596 5.44499 11.238 6.15299C10.8793 6.86166 10.5833 7.63266 10.35 8.46599ZM4.8 14.316H8.525C8.45833 13.9493 8.40833 13.5867 8.375 13.228C8.34167 12.87 8.325 12.5077 8.325 12.141C8.325 11.7743 8.34167 11.4117 8.375 11.053C8.40833 10.695 8.45833 10.3327 8.525 9.96599H4.8C4.7 10.2993 4.625 10.6493 4.575 11.016C4.525 11.3827 4.5 11.7577 4.5 12.141C4.5 12.5243 4.525 12.8993 4.575 13.266C4.625 13.6327 4.7 13.9827 4.8 14.316ZM10.575 19.841C10.1917 19.291 9.846 18.666 9.538 17.966C9.22933 17.266 8.99167 16.5493 8.825 15.816H5.425C5.95833 16.8493 6.66667 17.7203 7.55 18.429C8.43333 19.137 9.44167 19.6077 10.575 19.841ZM5.425 8.46599H8.825C9.00833 7.73266 9.25 7.01999 9.55 6.32799C9.85 5.63666 10.1917 4.99932 10.575 4.41599C9.40833 4.68266 8.39167 5.16166 7.525 5.85299C6.65833 6.54499 5.95833 7.41599 5.425 8.46599ZM12.5 20.116C13.0167 19.4493 13.446 18.7703 13.788 18.079C14.1293 17.387 14.4167 16.6327 14.65 15.816H10.35C10.5833 16.6493 10.871 17.4117 11.213 18.103C11.5543 18.795 11.9833 19.466 12.5 20.116ZM10.025 14.316H14.975C15.0417 13.9493 15.0917 13.591 15.125 13.241C15.1583 12.891 15.175 12.5243 15.175 12.141C15.175 11.7577 15.1583 11.391 15.125 11.041C15.0917 10.691 15.0417 10.3327 14.975 9.96599H10.025C9.95833 10.3327 9.90833 10.691 9.875 11.041C9.84167 11.391 9.825 11.7577 9.825 12.141C9.825 12.5243 9.84167 12.891 9.875 13.241C9.90833 13.591 9.95833 13.9493 10.025 14.316ZM14.425 19.841C15.5583 19.6077 16.5667 19.137 17.45 18.429C18.3333 17.7203 19.0417 16.8493 19.575 15.816H16.175C15.975 16.5493 15.725 17.27 15.425 17.978C15.125 18.6867 14.7917 19.3077 14.425 19.841ZM16.475 14.316H20.2C20.3 13.9827 20.375 13.6327 20.425 13.266C20.475 12.8993 20.5 12.5243 20.5 12.141C20.5 11.7577 20.475 11.3827 20.425 11.016C20.375 10.6493 20.3 10.2993 20.2 9.96599H16.475C16.5417 10.3327 16.5917 10.695 16.625 11.053C16.6583 11.4117 16.675 11.7743 16.675 12.141C16.675 12.5077 16.6583 12.87 16.625 13.228C16.5917 13.5867 16.5417 13.9493 16.475 14.316Z"
    fill="#111111"
  />
</svg>
