<svg
  width="24"
  height="24"
  viewBox="0 0 24 24"
  fill="none"
  xmlns="http://www.w3.org/2000/svg"
>
  <path
    d="M6.34961 19.691C5.56628 19.691 4.90361 19.4203 4.36161 18.879C3.82028 18.337 3.54961 17.6743 3.54961 16.891C3.08294 16.8577 2.68294 16.666 2.34961 16.316C2.01628 15.966 1.84961 15.5577 1.84961 15.091V6.44099C1.84961 5.94099 2.02461 5.51599 2.37461 5.16599C2.72461 4.81599 3.14961 4.64099 3.64961 4.64099H15.4496C15.9496 4.64099 16.3789 4.81599 16.7376 5.16599C17.0956 5.51599 17.2746 5.94099 17.2746 6.44099V8.44099H19.4746C19.6246 8.44099 19.7579 8.47432 19.8746 8.54099C19.9913 8.60766 20.0996 8.69932 20.1996 8.81599L22.9746 12.541C23.0413 12.6077 23.0873 12.6867 23.1126 12.778C23.1373 12.87 23.1496 12.966 23.1496 13.066V15.991C23.1496 16.241 23.0623 16.4537 22.8876 16.629C22.7123 16.8037 22.4996 16.891 22.2496 16.891H21.3496C21.3496 17.6743 21.0746 18.337 20.5246 18.879C19.9746 19.4203 19.3079 19.691 18.5246 19.691C17.7579 19.691 17.0996 19.4203 16.5496 18.879C15.9996 18.337 15.7246 17.6743 15.7246 16.891H9.14961C9.14961 17.6743 8.87894 18.337 8.33761 18.879C7.79561 19.4203 7.13294 19.691 6.34961 19.691ZM6.34961 18.191C6.71628 18.191 7.02461 18.066 7.27461 17.816C7.52461 17.566 7.64961 17.2577 7.64961 16.891C7.64961 16.5243 7.52461 16.216 7.27461 15.966C7.02461 15.716 6.71628 15.591 6.34961 15.591C5.98294 15.591 5.67461 15.716 5.42461 15.966C5.17461 16.216 5.04961 16.5243 5.04961 16.891C5.04961 17.2577 5.17461 17.566 5.42461 17.816C5.67461 18.066 5.98294 18.191 6.34961 18.191ZM3.34961 6.44099V15.091C3.34961 15.1243 3.35361 15.1577 3.36161 15.191C3.37028 15.2243 3.38728 15.2533 3.41261 15.278C3.43728 15.3033 3.46228 15.3283 3.48761 15.353C3.51228 15.3783 3.54128 15.391 3.57461 15.391H4.07461C4.29128 15.0243 4.59961 14.716 4.99961 14.466C5.39961 14.216 5.84961 14.091 6.34961 14.091C6.83294 14.091 7.27894 14.2117 7.68761 14.453C8.09561 14.695 8.40794 15.0077 8.62461 15.391H15.7746V6.44099C15.7746 6.35766 15.7456 6.28699 15.6876 6.22899C15.6289 6.17032 15.5496 6.14099 15.4496 6.14099H3.64961C3.56628 6.14099 3.49561 6.17032 3.43761 6.22899C3.37894 6.28699 3.34961 6.35766 3.34961 6.44099ZM18.5496 18.191C18.9163 18.191 19.2246 18.066 19.4746 17.816C19.7246 17.566 19.8496 17.2577 19.8496 16.891C19.8496 16.5243 19.7246 16.216 19.4746 15.966C19.2246 15.716 18.9163 15.591 18.5496 15.591C18.1829 15.591 17.8706 15.716 17.6126 15.966C17.3539 16.216 17.2246 16.5243 17.2246 16.891C17.2246 17.2577 17.3539 17.566 17.6126 17.816C17.8706 18.066 18.1829 18.191 18.5496 18.191ZM17.2746 13.391H21.7496L19.1496 9.94099H17.2746V13.391Z"
    fill="#111111"
  />
</svg>
