<svg
  width="18"
  height="24"
  viewBox="0 0 18 24"
  fill="none"
  xmlns="http://www.w3.org/2000/svg"
>
  <path
    d="M9 6.00001L6.525 3.55001L7.575 2.47501L9 3.90001L12.55 0.350006L13.6 1.40001L9 6.00001ZM2.625 21.5V22.75C2.625 22.9667 2.55 23.146 2.4 23.288C2.25 23.4293 2.075 23.5 1.875 23.5H1.25C1.03333 23.5 0.854333 23.4293 0.713 23.288C0.571 23.146 0.5 22.9667 0.5 22.75V15.075L2.55 9.25001C2.61667 9.01667 2.75 8.83334 2.95 8.70001C3.15 8.56667 3.375 8.50001 3.625 8.50001H14.425C14.6583 8.50001 14.8707 8.57067 15.062 8.71201C15.254 8.85401 15.3833 9.03334 15.45 9.25001L17.5 15.075V22.75C17.5 22.9667 17.4293 23.146 17.288 23.288C17.146 23.4293 16.9667 23.5 16.75 23.5H16.125C15.925 23.5 15.75 23.4293 15.6 23.288C15.45 23.146 15.375 22.9667 15.375 22.75V21.5H2.625ZM2.6 13.575H15.4L14.125 10H3.875L2.6 13.575ZM4.475 18.85C4.825 18.85 5.129 18.7207 5.387 18.462C5.64567 18.204 5.775 17.8917 5.775 17.525C5.775 17.175 5.64567 16.871 5.387 16.613C5.129 16.3543 4.81667 16.225 4.45 16.225C4.1 16.225 3.796 16.3543 3.538 16.613C3.27933 16.871 3.15 17.1833 3.15 17.55C3.15 17.9 3.27933 18.204 3.538 18.462C3.796 18.7207 4.10833 18.85 4.475 18.85ZM13.55 18.85C13.9 18.85 14.204 18.7207 14.462 18.462C14.7207 18.204 14.85 17.8917 14.85 17.525C14.85 17.175 14.7207 16.871 14.462 16.613C14.204 16.3543 13.8917 16.225 13.525 16.225C13.175 16.225 12.871 16.3543 12.613 16.613C12.3543 16.871 12.225 17.1833 12.225 17.55C12.225 17.9 12.3543 18.204 12.613 18.462C12.871 18.7207 13.1833 18.85 13.55 18.85ZM2 20H16V15.075H2V20Z"
    fill="#111111"
  />
</svg>
