<svg
  width="25"
  height="25"
  viewBox="0 0 25 25"
  fill="none"
  xmlns="http://www.w3.org/2000/svg"
>
  <path
    d="M2.75039 18.891V17.391H22.2504V18.891H2.75039ZM3.60039 12.891L2.55039 12.291L3.47539 10.691H1.65039V9.491H3.47539L2.55039 7.941L3.60039 7.341L4.50039 8.891L5.40039 7.341L6.45039 7.941L5.52539 9.491H7.35039V10.691H5.52539L6.45039 12.291L5.40039 12.891L4.50039 11.291L3.60039 12.891ZM11.6004 12.891L10.5504 12.291L11.4754 10.691H9.65039V9.491H11.4754L10.5504 7.941L11.6004 7.341L12.5004 8.891L13.4004 7.341L14.4504 7.941L13.5254 9.491H15.3504V10.691H13.5254L14.4504 12.291L13.4004 12.891L12.5004 11.291L11.6004 12.891ZM19.6004 12.891L18.5504 12.291L19.4754 10.691H17.6504V9.491H19.4754L18.5504 7.941L19.6004 7.341L20.5004 8.891L21.4004 7.341L22.4504 7.941L21.5254 9.491H23.3504V10.691H21.5254L22.4504 12.291L21.4004 12.891L20.5004 11.291L19.6004 12.891Z"
    fill="#111111"
  />
</svg>
