<svg
  width="24"
  height="24"
  viewBox="0 0 24 24"
  fill="none"
  xmlns="http://www.w3.org/2000/svg"
>
  <path
    d="M12.5 22.041C12.3833 22.041 12.271 22.0243 12.163 21.991C12.0543 21.9577 11.9583 21.891 11.875 21.791L9.7 19.641H5.8C5.3 19.641 4.875 19.466 4.525 19.116C4.175 18.766 4 18.341 4 17.841V4.44099C4 3.94099 4.175 3.51599 4.525 3.16599C4.875 2.81599 5.3 2.64099 5.8 2.64099H19.2C19.7 2.64099 20.125 2.81599 20.475 3.16599C20.825 3.51599 21 3.94099 21 4.44099V17.841C21 18.341 20.825 18.766 20.475 19.116C20.125 19.466 19.7 19.641 19.2 19.641H15.3L13.125 21.791C13.0417 21.891 12.946 21.9577 12.838 21.991C12.7293 22.0243 12.6167 22.041 12.5 22.041ZM5.5 17.191C6.4 16.3077 7.446 15.6117 8.638 15.103C9.82933 14.595 11.1167 14.341 12.5 14.341C13.8833 14.341 15.171 14.595 16.363 15.103C17.5543 15.6117 18.6 16.3077 19.5 17.191V4.44099C19.5 4.37432 19.4667 4.30766 19.4 4.24099C19.3333 4.17432 19.2667 4.14099 19.2 4.14099H5.8C5.73333 4.14099 5.66667 4.17432 5.6 4.24099C5.53333 4.30766 5.5 4.37432 5.5 4.44099V17.191ZM12.5 12.191C13.4 12.191 14.1667 11.8743 14.8 11.241C15.4333 10.6077 15.75 9.84099 15.75 8.94099C15.75 8.02432 15.4333 7.25366 14.8 6.62899C14.1667 6.00366 13.4 5.69099 12.5 5.69099C11.6 5.69099 10.8333 6.00366 10.2 6.62899C9.56667 7.25366 9.25 8.02432 9.25 8.94099C9.25 9.84099 9.56667 10.6077 10.2 11.241C10.8333 11.8743 11.6 12.191 12.5 12.191ZM12.5 10.691C12.0167 10.691 11.604 10.516 11.262 10.166C10.9207 9.81599 10.75 9.40766 10.75 8.94099C10.75 8.45766 10.9207 8.04499 11.262 7.70299C11.604 7.36166 12.0167 7.19099 12.5 7.19099C12.9833 7.19099 13.396 7.36166 13.738 7.70299C14.0793 8.04499 14.25 8.45766 14.25 8.94099C14.25 9.40766 14.0793 9.81599 13.738 10.166C13.396 10.516 12.9833 10.691 12.5 10.691ZM12.5 20.316L14.675 18.141H18.05C18.05 18.091 18.05 18.0537 18.05 18.029C18.05 18.0037 18.05 17.9743 18.05 17.941C17.2667 17.2243 16.4043 16.695 15.463 16.353C14.521 16.0117 13.5333 15.841 12.5 15.841C11.4833 15.841 10.5 16.0117 9.55 16.353C8.6 16.695 7.73333 17.216 6.95 17.916C6.95 17.9493 6.95 17.9827 6.95 18.016C6.95 18.0493 6.95 18.091 6.95 18.141H10.325L12.5 20.316Z"
    fill="#111111"
  />
</svg>
