<svg
  width="24"
  height="24"
  viewBox="0 0 24 24"
  fill="none"
  xmlns="http://www.w3.org/2000/svg"
>
  <path
    d="M12 6.375C9.925 6.375 8.25 8.05 8.25 10.125C8.25 12.2 9.925 13.875 12 13.875C14.075 13.875 15.75 12.2 15.75 10.125C15.75 8.05 14.075 6.375 12 6.375ZM12 12C10.9625 12 10.125 11.1625 10.125 10.125C10.125 9.0875 10.9625 8.25 12 8.25C13.0375 8.25 13.875 9.0875 13.875 10.125C13.875 11.1625 13.0375 12 12 12Z"
    fill="#111111"
  />
  <path
    d="M12 2C6.475 2 2 6.475 2 12C2 17.525 6.475 22 12 22C17.525 22 22 17.525 22 12C22 6.475 17.525 2 12 2ZM12 20.125C10.1375 20.125 8.425 19.4875 7.05 18.425C8.4875 17.525 10.1875 17 12 17C13.8125 17 15.5125 17.525 16.95 18.425C15.575 19.4875 13.8625 20.125 12 20.125ZM18.3375 17.075C16.5375 15.8375 14.35 15.125 12 15.125C9.65 15.125 7.475 15.85 5.6625 17.075C4.55 15.6875 3.875 13.925 3.875 12C3.875 7.525 7.525 3.875 12 3.875C16.475 3.875 20.125 7.525 20.125 12C20.125 13.925 19.45 15.6875 18.3375 17.075Z"
    fill="#111111"
  />
</svg>
