<svg
  width="25"
  height="24"
  viewBox="0 0 25 24"
  fill="none"
  xmlns="http://www.w3.org/2000/svg"
>
  <mask
    id="mask0_5190_23606"
    style="mask-type: alpha"
    maskUnits="userSpaceOnUse"
    x="0"
    y="0"
    width="25"
    height="24"
  >
    <rect x="0.5" width="24" height="24" fill="#D9D9D9" />
  </mask>
  <g mask="url(#mask0_5190_23606)">
    <g mask="url(#mask1_5190_23606)">
      <path
        d="M19.25 8.25V6.75L18.0833 7.9L17.7333 7.55L19.25 6.03333V5.25H18.4667L16.95 6.76667L16.6 6.41667L17.75 5.25H16.25V4.75H17.75L16.6 3.58333L16.95 3.23333L18.4667 4.75H19.25V3.96667L17.7333 2.45L18.0833 2.1L19.25 3.25V1.75H19.75V3.25L20.9167 2.1L21.2667 2.45L19.75 3.96667V4.75H20.5333L22.05 3.23333L22.4 3.58333L21.25 4.75H22.75V5.25H21.25L22.4 6.41667L22.05 6.76667L20.5333 5.25H19.75V6.03333L21.2667 7.55L20.9167 7.9L19.75 6.75V8.25H19.25Z"
        fill="#111111"
      />
    </g>
    <path
      d="M9.5 11.7C8.53333 11.7 7.70833 11.354 7.025 10.662C6.34167 9.97068 6 9.15001 6 8.20001C6 7.23335 6.34167 6.40835 7.025 5.72501C7.70833 5.04168 8.53333 4.70001 9.5 4.70001C10.4667 4.70001 11.2917 5.04168 11.975 5.72501C12.6583 6.40835 13 7.23335 13 8.20001C13 9.15001 12.6583 9.97068 11.975 10.662C11.2917 11.354 10.4667 11.7 9.5 11.7ZM2 19.3V17.075C2 16.5917 2.13333 16.1417 2.4 15.725C2.66667 15.3083 3.025 14.9833 3.475 14.75C4.45833 14.2667 5.45433 13.904 6.463 13.662C7.471 13.4207 8.48333 13.3 9.5 13.3C10.5167 13.3 11.5293 13.4207 12.538 13.662C13.546 13.904 14.5417 14.2667 15.525 14.75C15.975 14.9833 16.3333 15.3083 16.6 15.725C16.8667 16.1417 17 16.5917 17 17.075V19.3H2ZM3.5 17.8H15.5V17.075C15.5 16.875 15.4417 16.6917 15.325 16.525C15.2083 16.3583 15.05 16.2167 14.85 16.1C13.9833 15.6833 13.1043 15.3623 12.213 15.137C11.321 14.9123 10.4167 14.8 9.5 14.8C8.58333 14.8 7.679 14.9123 6.787 15.137C5.89567 15.3623 5.01667 15.6833 4.15 16.1C3.95 16.2167 3.79167 16.3583 3.675 16.525C3.55833 16.6917 3.5 16.875 3.5 17.075V17.8ZM9.5 10.2C10.05 10.2 10.521 10.004 10.913 9.61201C11.3043 9.22068 11.5 8.75001 11.5 8.20001C11.5 7.65001 11.3043 7.17901 10.913 6.78701C10.521 6.39568 10.05 6.20001 9.5 6.20001C8.95 6.20001 8.47933 6.39568 8.088 6.78701C7.696 7.17901 7.5 7.65001 7.5 8.20001C7.5 8.75001 7.696 9.22068 8.088 9.61201C8.47933 10.004 8.95 10.2 9.5 10.2Z"
      fill="#111111"
    />
  </g>
</svg>
