<svg
  width="24"
  height="24"
  viewBox="0 0 24 24"
  fill="none"
  xmlns="http://www.w3.org/2000/svg"
>
  <path
    d="M18.125 13.75V10.75H15.125V9.25001H18.125V6.25001H19.625V9.25001H22.625V10.75H19.625V13.75H18.125ZM8.875 11.7C7.90833 11.7 7.08333 11.354 6.4 10.662C5.71667 9.97068 5.375 9.15001 5.375 8.20001C5.375 7.23335 5.71667 6.40835 6.4 5.72501C7.08333 5.04168 7.90833 4.70001 8.875 4.70001C9.84167 4.70001 10.6667 5.04168 11.35 5.72501C12.0333 6.40835 12.375 7.23335 12.375 8.20001C12.375 9.15001 12.0333 9.97068 11.35 10.662C10.6667 11.354 9.84167 11.7 8.875 11.7ZM1.375 19.3V17.075C1.375 16.5917 1.50833 16.1417 1.775 15.725C2.04167 15.3083 2.4 14.9833 2.85 14.75C3.83333 14.2667 4.82933 13.904 5.838 13.662C6.846 13.4207 7.85833 13.3 8.875 13.3C9.89167 13.3 10.9043 13.4207 11.913 13.662C12.921 13.904 13.9167 14.2667 14.9 14.75C15.35 14.9833 15.7083 15.3083 15.975 15.725C16.2417 16.1417 16.375 16.5917 16.375 17.075V19.3H1.375Z"
    fill="#111111"
  />
</svg>
