<svg
  width="24"
  height="24"
  viewBox="0 0 24 24"
  fill="none"
  xmlns="http://www.w3.org/2000/svg"
>
  <path
    d="M3.87461 19.441C3.62461 19.441 3.41194 19.3577 3.23661 19.191C3.06194 19.0243 2.97461 18.8077 2.97461 18.541V17.216C2.97461 16.6993 3.10794 16.241 3.37461 15.841C3.64128 15.441 3.99128 15.1243 4.42461 14.891C5.27461 14.4577 6.17461 14.1077 7.12461 13.841C8.07461 13.5743 9.19128 13.441 10.4746 13.441C10.9746 13.441 11.4373 13.4617 11.8626 13.503C12.2873 13.545 12.6913 13.6077 13.0746 13.691L11.7496 15.016C11.5663 14.9827 11.3663 14.9617 11.1496 14.953C10.9329 14.945 10.7079 14.941 10.4746 14.941C9.29128 14.941 8.25394 15.0743 7.36261 15.341C6.47061 15.6077 5.72461 15.9077 5.12461 16.241C4.89128 16.3577 4.72461 16.4993 4.62461 16.666C4.52461 16.8327 4.47461 17.016 4.47461 17.216V17.941H10.5246L12.0246 19.441H3.87461ZM15.9246 19.816C15.8079 19.816 15.6956 19.7953 15.5876 19.754C15.4789 19.712 15.3829 19.6493 15.2996 19.566L13.3496 17.616C13.2163 17.4827 13.1453 17.3117 13.1366 17.103C13.1286 16.895 13.1996 16.716 13.3496 16.566C13.4996 16.416 13.6746 16.341 13.8746 16.341C14.0746 16.341 14.2496 16.416 14.3996 16.566L15.9246 18.091L20.4496 13.566C20.5829 13.4327 20.7539 13.3617 20.9626 13.353C21.1706 13.345 21.3496 13.416 21.4996 13.566C21.6496 13.716 21.7246 13.891 21.7246 14.091C21.7246 14.291 21.6496 14.466 21.4996 14.616L16.5496 19.566C16.4663 19.6493 16.3706 19.712 16.2626 19.754C16.1539 19.7953 16.0413 19.816 15.9246 19.816ZM10.4746 11.841C9.50794 11.841 8.68294 11.495 7.99961 10.803C7.31628 10.1117 6.97461 9.291 6.97461 8.341C6.97461 7.37434 7.31628 6.54934 7.99961 5.866C8.68294 5.18267 9.50794 4.841 10.4746 4.841C11.4413 4.841 12.2663 5.18267 12.9496 5.866C13.6329 6.54934 13.9746 7.37434 13.9746 8.341C13.9746 9.291 13.6329 10.1117 12.9496 10.803C12.2663 11.495 11.4413 11.841 10.4746 11.841ZM10.4746 10.341C11.0246 10.341 11.4956 10.145 11.8876 9.753C12.2789 9.36167 12.4746 8.891 12.4746 8.341C12.4746 7.791 12.2789 7.32 11.8876 6.928C11.4956 6.53667 11.0246 6.341 10.4746 6.341C9.92461 6.341 9.45361 6.53667 9.06161 6.928C8.67028 7.32 8.47461 7.791 8.47461 8.341C8.47461 8.891 8.67028 9.36167 9.06161 9.753C9.45361 10.145 9.92461 10.341 10.4746 10.341Z"
    fill="#111111"
  />
</svg>
