<svg
  width="24"
  height="24"
  viewBox="0 0 24 24"
  fill="none"
  xmlns="http://www.w3.org/2000/svg"
>
  <path
    d="M12.5 16.641C13.75 16.641 14.8127 16.2037 15.688 15.329C16.5627 14.4537 17 13.391 17 12.141C17 10.891 16.5627 9.82832 15.688 8.95299C14.8127 8.07832 13.75 7.64099 12.5 7.64099C11.25 7.64099 10.1873 8.07832 9.312 8.95299C8.43733 9.82832 8 10.891 8 12.141C8 13.391 8.43733 14.4537 9.312 15.329C10.1873 16.2037 11.25 16.641 12.5 16.641ZM12.5 21.641C11.1833 21.641 9.946 21.391 8.788 20.891C7.62933 20.391 6.625 19.716 5.775 18.866C4.925 18.016 4.25 17.0117 3.75 15.853C3.25 14.695 3 13.4577 3 12.141C3 10.8243 3.25 9.58666 3.75 8.42799C4.25 7.26999 4.925 6.26599 5.775 5.41599C6.625 4.56599 7.62933 3.89099 8.788 3.39099C9.946 2.89099 11.1833 2.64099 12.5 2.64099C13.8167 2.64099 15.0543 2.89099 16.213 3.39099C17.371 3.89099 18.375 4.56599 19.225 5.41599C20.075 6.26599 20.75 7.26999 21.25 8.42799C21.75 9.58666 22 10.8243 22 12.141C22 13.4577 21.75 14.695 21.25 15.853C20.75 17.0117 20.075 18.016 19.225 18.866C18.375 19.716 17.371 20.391 16.213 20.891C15.0543 21.391 13.8167 21.641 12.5 21.641ZM12.5 20.141C14.7167 20.141 16.6043 19.362 18.163 17.804C19.721 16.2453 20.5 14.3577 20.5 12.141C20.5 9.92432 19.721 8.03666 18.163 6.47799C16.6043 4.91999 14.7167 4.14099 12.5 4.14099C10.2833 4.14099 8.396 4.91999 6.838 6.47799C5.27933 8.03666 4.5 9.92432 4.5 12.141C4.5 14.3577 5.27933 16.2453 6.838 17.804C8.396 19.362 10.2833 20.141 12.5 20.141Z"
    fill="#111111"
  />
</svg>
