<svg
  width="24"
  height="24"
  viewBox="0 0 24 24"
  fill="none"
  xmlns="http://www.w3.org/2000/svg"
>
  <path
    d="M20.0504 20.575L13.7504 14.3C13.2504 14.7167 12.6754 15.0417 12.0254 15.275C11.3754 15.5083 10.7087 15.625 10.0254 15.625C8.30872 15.625 6.85872 15.0333 5.67539 13.85C4.49206 12.6667 3.90039 11.2167 3.90039 9.5C3.90039 7.8 4.49206 6.354 5.67539 5.162C6.85872 3.97067 8.30872 3.375 10.0254 3.375C11.7254 3.375 13.1671 3.96667 14.3504 5.15C15.5337 6.33333 16.1254 7.78333 16.1254 9.5C16.1254 10.2167 16.0087 10.9 15.7754 11.55C15.5421 12.2 15.2254 12.7667 14.8254 13.25L21.1004 19.525L20.0504 20.575ZM10.0254 14.125C11.3087 14.125 12.3964 13.675 13.2884 12.775C14.1797 11.875 14.6254 10.7833 14.6254 9.5C14.6254 8.21667 14.1797 7.125 13.2884 6.225C12.3964 5.325 11.3087 4.875 10.0254 4.875C8.72539 4.875 7.62972 5.325 6.73839 6.225C5.84639 7.125 5.40039 8.21667 5.40039 9.5C5.40039 10.7833 5.84639 11.875 6.73839 12.775C7.62972 13.675 8.72539 14.125 10.0254 14.125Z"
    fill="#111111"
  />
</svg>
