<svg
  width="24"
  height="24"
  viewBox="0 0 24 24"
  fill="none"
  xmlns="http://www.w3.org/2000/svg"
>
  <path
    d="M10.5498 20.775V15.15L11.9498 11.2C11.9998 11.0667 12.0831 10.9583 12.1998 10.875C12.3165 10.7917 12.4665 10.75 12.6498 10.75H19.8498C20.0331 10.75 20.1871 10.7917 20.3118 10.875C20.4371 10.9583 20.5165 11.0667 20.5498 11.2L21.9498 15.15V20.775C21.9498 20.925 21.8958 21.05 21.7878 21.15C21.6791 21.25 21.5498 21.3 21.3998 21.3H20.9748C20.8248 21.3 20.6998 21.25 20.5998 21.15C20.4998 21.05 20.4498 20.925 20.4498 20.775V19.7H12.0498V20.775C12.0498 20.925 11.9998 21.05 11.8998 21.15C11.7998 21.25 11.6748 21.3 11.5248 21.3H11.0998C10.9498 21.3 10.8208 21.25 10.7128 21.15C10.6041 21.05 10.5498 20.925 10.5498 20.775ZM12.1748 14.175H20.3248L19.5498 11.95H12.9498L12.1748 14.175ZM13.2998 17.85C13.5665 17.85 13.7875 17.7583 13.9628 17.575C14.1375 17.3917 14.2248 17.1667 14.2248 16.9C14.2248 16.6333 14.1375 16.4083 13.9628 16.225C13.7875 16.0417 13.5665 15.95 13.2998 15.95C13.0331 15.95 12.8081 16.0417 12.6248 16.225C12.4415 16.4083 12.3498 16.6333 12.3498 16.9C12.3498 17.1667 12.4415 17.3917 12.6248 17.575C12.8081 17.7583 13.0331 17.85 13.2998 17.85ZM19.1998 17.85C19.4665 17.85 19.6915 17.7583 19.8748 17.575C20.0581 17.3917 20.1498 17.1667 20.1498 16.9C20.1498 16.6333 20.0581 16.4083 19.8748 16.225C19.6915 16.0417 19.4665 15.95 19.1998 15.95C18.9331 15.95 18.7125 16.0417 18.5378 16.225C18.3625 16.4083 18.2748 16.6333 18.2748 16.9C18.2748 17.1667 18.3625 17.3917 18.5378 17.575C18.7125 17.7583 18.9331 17.85 19.1998 17.85ZM6.6748 13.3V11.55H8.4498V13.3H6.6748ZM11.1748 7.79999V6.04999H12.9498V7.79999H11.1748ZM6.6748 17.3V15.55H8.4498V17.3H6.6748ZM6.6748 21.3V19.55H8.4498V21.3H6.6748ZM3.0498 21.3V7.92499H7.5498V2.42499H16.5498V8.62499H15.0498V3.92499H9.0498V9.42499H4.5498V21.3H3.0498ZM11.7498 18.525H20.7498V15.375H11.7498V18.525Z"
    fill="#111111"
  />
</svg>
