<svg width="20" height="20" viewBox="0 0 20 20" fill="none" xmlns="http://www.w3.org/2000/svg">
  <path
    d="M8.7998 19.3C8.5998 19.3 8.4248 19.229 8.2748 19.087C8.1248 18.9457 8.0498 18.7667 8.0498 18.55V13.275C8.0498 13.2417 8.06647 13.1583 8.0998 13.025L9.4498 9.19999C9.4998 9.06665 9.58314 8.95832 9.6998 8.87499C9.81647 8.79165 9.96647 8.74999 10.1498 8.74999H17.3498C17.5331 8.74999 17.6831 8.79165 17.7998 8.87499C17.9165 8.95832 17.9998 9.06665 18.0498 9.19999L19.3998 13.025C19.3998 13.0417 19.4165 13.125 19.4498 13.275V18.55C19.4498 18.7667 19.3748 18.9457 19.2248 19.087C19.0748 19.229 18.8998 19.3 18.6998 19.3C18.4831 19.3 18.3041 19.229 18.1628 19.087C18.0208 18.9457 17.9498 18.7667 17.9498 18.55V17.7H9.5498V18.55C9.5498 18.7667 9.47914 18.9457 9.3378 19.087C9.1958 19.229 9.01647 19.3 8.7998 19.3ZM9.6748 12.175H17.8248L17.0498 9.94999H10.4498L9.6748 12.175ZM10.7998 15.85C11.0665 15.85 11.2875 15.7583 11.4628 15.575C11.6375 15.3917 11.7248 15.1667 11.7248 14.9C11.7248 14.6333 11.6375 14.4083 11.4628 14.225C11.2875 14.0417 11.0665 13.95 10.7998 13.95C10.5331 13.95 10.3081 14.0417 10.1248 14.225C9.94147 14.4083 9.8498 14.6333 9.8498 14.9C9.8498 15.1667 9.94147 15.3917 10.1248 15.575C10.3081 15.7583 10.5331 15.85 10.7998 15.85ZM16.6998 15.85C16.9665 15.85 17.1915 15.7583 17.3748 15.575C17.5581 15.3917 17.6498 15.1667 17.6498 14.9C17.6498 14.6333 17.5581 14.4083 17.3748 14.225C17.1915 14.0417 16.9665 13.95 16.6998 13.95C16.4331 13.95 16.2125 14.0417 16.0378 14.225C15.8625 14.4083 15.7748 14.6333 15.7748 14.9C15.7748 15.1667 15.8625 15.3917 16.0378 15.575C16.2125 15.7583 16.4331 15.85 16.6998 15.85ZM4.1748 11.3V9.54999H5.9498V11.3H4.1748ZM8.6748 5.79999V4.04999H10.4498V5.79999H8.6748ZM4.1748 15.3V13.55H5.9498V15.3H4.1748ZM4.1748 19.3V17.55H5.9498V19.3H4.1748ZM0.549805 19.3V7.42499C0.549805 7.00832 0.699805 6.65432 0.999805 6.36299C1.2998 6.07099 1.6498 5.92499 2.0498 5.92499H5.0498V1.92499C5.0498 1.50832 5.1998 1.15399 5.4998 0.861988C5.7998 0.570654 6.1498 0.424988 6.5498 0.424988H12.5498C12.9665 0.424988 13.3208 0.570654 13.6128 0.861988C13.9041 1.15399 14.0498 1.50832 14.0498 1.92499V6.62499H12.5498V1.92499H6.5498V7.42499H2.0498V19.3H0.549805ZM9.2498 16.525H18.2498V13.375H9.2498V16.525Z"
    fill="#111111" />
</svg>
