<svg
  width="24"
  height="24"
  viewBox="0 0 24 24"
  fill="none"
  xmlns="http://www.w3.org/2000/svg"
>
  <path
    d="M6.3 19.5C5.8 19.5 5.375 19.325 5.025 18.975C4.675 18.625 4.5 18.2 4.5 17.7V15H6V17.7C6 17.7667 6.03333 17.8333 6.1 17.9C6.16667 17.9667 6.23333 18 6.3 18H17.7C17.7667 18 17.8333 17.9667 17.9 17.9C17.9667 17.8333 18 17.7667 18 17.7V15H19.5V17.7C19.5 18.2 19.325 18.625 18.975 18.975C18.625 19.325 18.2 19.5 17.7 19.5H6.3ZM11.25 15.625V7.22501L8.775 9.67501L7.725 8.60001L12 4.32501L16.275 8.60001L15.225 9.67501L12.75 7.22501V15.625H11.25Z"
    fill="#111111"
  />
</svg>
