<svg
  width="16"
  height="16"
  viewBox="0 0 16 16"
  fill="none"
  xmlns="http://www.w3.org/2000/svg"
>
  <path
    d="M7.33329 2.66699V0.666992H8.66663V2.66699H7.33329ZM7.33329 15.3337V13.3337H8.66663V15.3337H7.33329ZM13.3333 8.66699V7.33366H15.3333V8.66699H13.3333ZM0.666626 8.66699V7.33366H2.66663V8.66699H0.666626ZM12.4666 4.46699L11.5333 3.53366L12.7 2.33366L13.6666 3.30033L12.4666 4.46699ZM3.29996 13.667L2.33329 12.7003L3.53329 11.5337L4.46663 12.467L3.29996 13.667ZM12.7 13.667L11.5333 12.467L12.4666 11.5337L13.6666 12.7003L12.7 13.667ZM3.53329 4.46699L2.33329 3.30033L3.29996 2.33366L4.46663 3.53366L3.53329 4.46699ZM7.99996 12.0003C6.88885 12.0003 5.9444 11.6114 5.16663 10.8337C4.38885 10.0559 3.99996 9.11144 3.99996 8.00033C3.99996 6.88921 4.38885 5.94477 5.16663 5.16699C5.9444 4.38921 6.88885 4.00033 7.99996 4.00033C9.11107 4.00033 10.0555 4.38921 10.8333 5.16699C11.6111 5.94477 12 6.88921 12 8.00033C12 9.11144 11.6111 10.0559 10.8333 10.8337C10.0555 11.6114 9.11107 12.0003 7.99996 12.0003Z"
    fill="#FF9500"
  />
</svg>
