<svg
  width="24"
  height="24"
  viewBox="0 0 24 24"
  fill="none"
  xmlns="http://www.w3.org/2000/svg"
>
  <path
    d="M7.83333 2H5.33333C4.44928 2 3.60143 2.35119 2.97631 2.97631C2.35119 3.60143 2 4.44928 2 5.33333L2 7.83333C2 8.71739 2.35119 9.56524 2.97631 10.1904C3.60143 10.8155 4.44928 11.1667 5.33333 11.1667H7.83333C8.71739 11.1667 9.56524 10.8155 10.1904 10.1904C10.8155 9.56524 11.1667 8.71739 11.1667 7.83333V5.33333C11.1667 4.44928 10.8155 3.60143 10.1904 2.97631C9.56524 2.35119 8.71739 2 7.83333 2V2ZM9.5 7.83333C9.5 8.27536 9.32441 8.69928 9.01184 9.01184C8.69928 9.32441 8.27536 9.5 7.83333 9.5H5.33333C4.89131 9.5 4.46738 9.32441 4.15482 9.01184C3.84226 8.69928 3.66667 8.27536 3.66667 7.83333V5.33333C3.66667 4.89131 3.84226 4.46738 4.15482 4.15482C4.46738 3.84226 4.89131 3.66667 5.33333 3.66667H7.83333C8.27536 3.66667 8.69928 3.84226 9.01184 4.15482C9.32441 4.46738 9.5 4.89131 9.5 5.33333V7.83333Z"
    fill="#111111"
  />
  <path
    d="M7.83333 12.8333H5.33333C4.44928 12.8333 3.60143 13.1845 2.97631 13.8097C2.35119 14.4348 2 15.2826 2 16.1667L2 18.6667C2 19.5507 2.35119 20.3986 2.97631 21.0237C3.60143 21.6488 4.44928 22 5.33333 22H7.83333C8.71739 22 9.56524 21.6488 10.1904 21.0237C10.8155 20.3986 11.1667 19.5507 11.1667 18.6667V16.1667C11.1667 15.2826 10.8155 14.4348 10.1904 13.8097C9.56524 13.1845 8.71739 12.8333 7.83333 12.8333ZM9.5 18.6667C9.5 19.1087 9.32441 19.5326 9.01184 19.8452C8.69928 20.1577 8.27536 20.3333 7.83333 20.3333H5.33333C4.89131 20.3333 4.46738 20.1577 4.15482 19.8452C3.84226 19.5326 3.66667 19.1087 3.66667 18.6667V16.1667C3.66667 15.7246 3.84226 15.3007 4.15482 14.9882C4.46738 14.6756 4.89131 14.5 5.33333 14.5H7.83333C8.27536 14.5 8.69928 14.6756 9.01184 14.9882C9.32441 15.3007 9.5 15.7246 9.5 16.1667V18.6667Z"
    fill="#111111"
  />
  <path
    d="M18.6663 12.8333H16.1663C15.2823 12.8333 14.4344 13.1845 13.8093 13.8097C13.1842 14.4348 12.833 15.2826 12.833 16.1667V18.6667C12.833 19.5507 13.1842 20.3986 13.8093 21.0237C14.4344 21.6488 15.2823 22 16.1663 22H18.6663C19.5504 22 20.3982 21.6488 21.0234 21.0237C21.6485 20.3986 21.9997 19.5507 21.9997 18.6667V16.1667C21.9997 15.2826 21.6485 14.4348 21.0234 13.8097C20.3982 13.1845 19.5504 12.8333 18.6663 12.8333ZM20.333 18.6667C20.333 19.1087 20.1574 19.5326 19.8449 19.8452C19.5323 20.1577 19.1084 20.3333 18.6663 20.3333H16.1663C15.7243 20.3333 15.3004 20.1577 14.9878 19.8452C14.6753 19.5326 14.4997 19.1087 14.4997 18.6667V16.1667C14.4997 15.7246 14.6753 15.3007 14.9878 14.9882C15.3004 14.6756 15.7243 14.5 16.1663 14.5H18.6663C19.1084 14.5 19.5323 14.6756 19.8449 14.9882C20.1574 15.3007 20.333 15.7246 20.333 16.1667V18.6667Z"
    fill="#111111"
  />
  <path
    d="M13.6663 7.83334H16.1663V10.3333C16.1663 10.5544 16.2541 10.7663 16.4104 10.9226C16.5667 11.0789 16.7787 11.1667 16.9997 11.1667C17.2207 11.1667 17.4327 11.0789 17.5889 10.9226C17.7452 10.7663 17.833 10.5544 17.833 10.3333V7.83334H20.333C20.554 7.83334 20.766 7.74555 20.9223 7.58927C21.0785 7.43299 21.1663 7.22102 21.1663 7.00001C21.1663 6.779 21.0785 6.56704 20.9223 6.41075C20.766 6.25447 20.554 6.16668 20.333 6.16668H17.833V3.66668C17.833 3.44566 17.7452 3.2337 17.5889 3.07742C17.4327 2.92114 17.2207 2.83334 16.9997 2.83334C16.7787 2.83334 16.5667 2.92114 16.4104 3.07742C16.2541 3.2337 16.1663 3.44566 16.1663 3.66668V6.16668H13.6663C13.4453 6.16668 13.2334 6.25447 13.0771 6.41075C12.9208 6.56704 12.833 6.779 12.833 7.00001C12.833 7.22102 12.9208 7.43299 13.0771 7.58927C13.2334 7.74555 13.4453 7.83334 13.6663 7.83334Z"
    fill="#111111"
  />
</svg>
