<svg
  width="24"
  height="24"
  viewBox="0 0 24 24"
  fill="none"
  xmlns="http://www.w3.org/2000/svg"
>
  <g clip-path="url(#clip0_8024_33861)">
    <path
      d="M5.38996 17H18.4366C18.8382 17 19.2338 16.9033 19.59 16.7181C19.9463 16.5328 20.2527 16.2645 20.4833 15.9358C20.7139 15.6071 20.8619 15.2277 20.9149 14.8297C20.9678 14.4316 20.9241 14.0267 20.7875 13.6492L18.4108 7.07833C18.0049 5.61809 17.1319 4.33099 15.9252 3.41389C14.7186 2.49679 13.2447 2.00018 11.7291 2V2C10.1514 1.99998 8.62083 2.53799 7.39013 3.52521C6.15944 4.51244 5.3022 5.88984 4.95996 7.43L3.00162 13.7633C2.88632 14.1372 2.8604 14.533 2.92595 14.9188C2.99149 15.3045 3.14667 15.6695 3.379 15.9844C3.61133 16.2992 3.91432 16.5551 4.26359 16.7315C4.61287 16.9079 4.99867 16.9999 5.38996 17Z"
      fill="#111111"
    />
    <path
      d="M7.91699 18.6667C8.10825 19.6086 8.61927 20.4554 9.36344 21.0637C10.1076 21.6719 11.0392 22.0042 12.0003 22.0042C12.9615 22.0042 13.893 21.6719 14.6372 21.0637C15.3814 20.4554 15.8924 19.6086 16.0837 18.6667H7.91699Z"
      fill="#111111"
    />
  </g>
  <defs>
    <clipPath id="clip0_8024_33861">
      <rect width="20" height="20" fill="white" transform="translate(2 2)" />
    </clipPath>
  </defs>
</svg>
