<svg
  width="25"
  height="24"
  viewBox="0 0 24 24"
  fill="none"
  xmlns="http://www.w3.org/2000/svg"
>
  <path
    d="M21.6669 11.1667C21.4459 11.1667 21.2339 11.0789 21.0777 10.9226C20.9214 10.7663 20.8336 10.5543 20.8336 10.3333C20.8318 8.56577 20.1289 6.8711 18.879 5.62124C17.6291 4.37138 15.9345 3.66843 14.1669 3.66667C13.9459 3.66667 13.7339 3.57887 13.5777 3.42259C13.4214 3.26631 13.3336 3.05435 13.3336 2.83333C13.3336 2.61232 13.4214 2.40036 13.5777 2.24408C13.7339 2.0878 13.9459 2 14.1669 2C16.3763 2.00243 18.4945 2.88118 20.0568 4.44346C21.6191 6.00574 22.4978 8.12394 22.5002 10.3333C22.5002 10.5543 22.4124 10.7663 22.2562 10.9226C22.0999 11.0789 21.8879 11.1667 21.6669 11.1667ZM19.1669 10.3333C19.1669 9.00725 18.6401 7.73548 17.7024 6.7978C16.7648 5.86012 15.493 5.33333 14.1669 5.33333C13.9459 5.33333 13.7339 5.42113 13.5777 5.57741C13.4214 5.73369 13.3336 5.94565 13.3336 6.16667C13.3336 6.38768 13.4214 6.59964 13.5777 6.75592C13.7339 6.9122 13.9459 7 14.1669 7C15.051 7 15.8988 7.35119 16.5239 7.97631C17.1491 8.60143 17.5002 9.44928 17.5002 10.3333C17.5002 10.5543 17.588 10.7663 17.7443 10.9226C17.9006 11.0789 18.1126 11.1667 18.3336 11.1667C18.5546 11.1667 18.7666 11.0789 18.9228 10.9226C19.0791 10.7663 19.1669 10.5543 19.1669 10.3333ZM20.9861 20.47L21.7444 19.5958C22.2271 19.1116 22.4981 18.4558 22.4981 17.7721C22.4981 17.0884 22.2271 16.4326 21.7444 15.9483C21.7186 15.9225 19.7136 14.38 19.7136 14.38C19.2324 13.9219 18.5932 13.6669 17.9288 13.6678C17.2645 13.6687 16.626 13.9256 16.1461 14.385L14.5577 15.7233C13.2612 15.1867 12.0835 14.3993 11.0921 13.4063C10.1008 12.4132 9.31543 11.2341 8.78108 9.93667L10.1144 8.35333C10.5742 7.87348 10.8313 7.2349 10.8324 6.57034C10.8335 5.90578 10.5784 5.26636 10.1202 4.785C10.1202 4.785 8.57608 2.7825 8.55025 2.75667C8.07479 2.27813 7.43015 2.00585 6.7556 1.99868C6.08106 1.99151 5.43077 2.25001 4.94525 2.71833L3.98691 3.55167C-1.67475 10.12 10.5169 22.2175 17.3019 22C17.9871 22.004 18.6661 21.8706 19.2988 21.6078C19.9316 21.3451 20.5053 20.9582 20.9861 20.47Z"
    fill="#111111"
  />
</svg>
