<svg
  width="24"
  height="24"
  viewBox="0 0 24 24"
  fill="none"
  xmlns="http://www.w3.org/2000/svg"
>
  <path
    d="M12 21.5C10.6667 21.5 9.42083 21.2583 8.2625 20.775C7.10417 20.2917 6.09583 19.6208 5.2375 18.7625C4.37917 17.9042 3.70833 16.8958 3.225 15.7375C2.74167 14.5792 2.5 13.3333 2.5 12C2.5 10.6667 2.74167 9.425 3.225 8.275C3.70833 7.125 4.37917 6.12083 5.2375 5.2625C6.09583 4.40417 7.10417 3.72917 8.2625 3.2375C9.42083 2.74583 10.6667 2.5 12 2.5C13.3333 2.5 14.575 2.74583 15.725 3.2375C16.875 3.72917 17.8792 4.40417 18.7375 5.2625C19.5958 6.12083 20.2708 7.125 20.7625 8.275C21.2542 9.425 21.5 10.6667 21.5 12C21.5 13.3333 21.2542 14.5792 20.7625 15.7375C20.2708 16.8958 19.5958 17.9042 18.7375 18.7625C17.8792 19.6208 16.875 20.2917 15.725 20.775C14.575 21.2583 13.3333 21.5 12 21.5ZM8.3 16.5L12 12.8L15.7 16.5L16.5 15.7L12.8 12L16.5 8.3L15.7 7.5L12 11.2L8.3 7.5L7.5 8.3L11.2 12L7.5 15.7L8.3 16.5Z"
    fill="#111111"
  />
</svg>
