<svg
  width="25"
  height="25"
  viewBox="0 0 24 24"
  fill="none"
  xmlns="http://www.w3.org/2000/svg"
>
  <path
    d="M11.5 22.141V17.991L8.25 21.191L6.85 19.791L11.5 15.141V13.141H9.5L4.85 17.791L3.45 16.391L6.65 13.141H2.5V11.141H6.65L3.45 7.89099L4.85 6.49099L9.5 11.141H11.5V9.14099L6.85 4.49099L8.25 3.09099L11.5 6.29099V2.14099H13.5V6.29099L16.75 3.09099L18.15 4.49099L13.5 9.14099V11.141H15.5L20.15 6.49099L21.55 7.89099L18.35 11.141H22.5V13.141H18.35L21.55 16.391L20.15 17.791L15.5 13.141H13.5V15.141L18.15 19.791L16.75 21.191L13.5 17.991V22.141H11.5Z"
    fill="#111111"
  />
</svg>
