<svg
  width="25"
  height="25"
  viewBox="0 0 25 25"
  fill="none"
  xmlns="http://www.w3.org/2000/svg"
>
  <path
    d="M12.5 22.141C11.1167 22.141 9.81667 21.8783 8.6 21.353C7.38333 20.8283 6.325 20.116 5.425 19.216C4.525 18.316 3.81267 17.2577 3.288 16.041C2.76267 14.8243 2.5 13.5243 2.5 12.141C2.5 10.7577 2.76267 9.45766 3.288 8.24099C3.81267 7.02432 4.525 5.96599 5.425 5.06599C6.325 4.16599 7.38333 3.45332 8.6 2.92799C9.81667 2.40332 11.1167 2.14099 12.5 2.14099C13.8833 2.14099 15.1833 2.40332 16.4 2.92799C17.6167 3.45332 18.675 4.16599 19.575 5.06599C20.475 5.96599 21.1873 7.02432 21.712 8.24099C22.2373 9.45766 22.5 10.7577 22.5 12.141C22.5 13.5243 22.2373 14.8243 21.712 16.041C21.1873 17.2577 20.475 18.316 19.575 19.216C18.675 20.116 17.6167 20.8283 16.4 21.353C15.1833 21.8783 13.8833 22.141 12.5 22.141ZM7.5 13.141H17.5V11.141H7.5V13.141Z"
    fill="#111111"
  />
</svg>
