<svg
  width="24"
  height="24"
  viewBox="0 0 24 24"
  fill="none"
  xmlns="http://www.w3.org/2000/svg"
>
  <path
    d="M1.7998 19.3V17.075C1.7998 16.5583 1.93314 16.1 2.1998 15.7C2.46647 15.3 2.8248 14.9833 3.2748 14.75C4.2248 14.3 5.17914 13.946 6.1378 13.688C7.09581 13.4293 8.1498 13.3 9.2998 13.3C10.4498 13.3 11.5041 13.4293 12.4628 13.688C13.4208 13.946 14.3748 14.3 15.3248 14.75C15.7748 14.9833 16.1331 15.3 16.3998 15.7C16.6665 16.1 16.7998 16.5583 16.7998 17.075V19.3H1.7998ZM9.2998 11.7C8.33314 11.7 7.50814 11.354 6.8248 10.662C6.14147 9.97066 5.7998 9.15 5.7998 8.2C5.7998 7.23333 6.14147 6.40833 6.8248 5.725C7.50814 5.04166 8.33314 4.7 9.2998 4.7C10.2665 4.7 11.0915 5.04166 11.7748 5.725C12.4581 6.40833 12.7998 7.23333 12.7998 8.2C12.7998 9.15 12.4581 9.97066 11.7748 10.662C11.0915 11.354 10.2665 11.7 9.2998 11.7ZM17.9248 8.2C17.9248 9.16666 17.5831 9.98733 16.8998 10.662C16.2165 11.3373 15.3915 11.6833 14.4248 11.7C14.3081 11.7 14.1665 11.6873 13.9998 11.662C13.8331 11.6373 13.6915 11.6083 13.5748 11.575C13.9748 11.0917 14.2791 10.5627 14.4878 9.988C14.6958 9.41266 14.7998 8.81666 14.7998 8.2C14.7998 7.56666 14.6915 6.96666 14.4748 6.4C14.2581 5.83333 13.9581 5.30833 13.5748 4.825C13.7081 4.775 13.8498 4.74166 13.9998 4.725C14.1498 4.70833 14.2915 4.7 14.4248 4.7C15.3915 4.7 16.2165 5.04166 16.8998 5.725C17.5831 6.40833 17.9248 7.23333 17.9248 8.2ZM18.7998 19.3V16.95C18.7998 16.3 18.6371 15.679 18.3118 15.087C17.9871 14.4957 17.5331 13.9833 16.9498 13.55C17.6165 13.65 18.2498 13.804 18.8498 14.012C19.4498 14.2207 20.0248 14.4667 20.5748 14.75C21.0915 15.0333 21.4915 15.3627 21.7748 15.738C22.0581 16.1127 22.1998 16.5167 22.1998 16.95V19.3H18.7998Z"
    fill="#111111"
  />
</svg>
