<svg
  width="24"
  height="24"
  viewBox="0 0 24 24"
  fill="none"
  xmlns="http://www.w3.org/2000/svg"
>
  <path
    d="M12.0064 14.5016C10.6249 14.5016 9.50488 15.6216 9.50488 17.0031V22.0063H14.508V17.0031C14.508 15.6216 13.388 14.5016 12.0064 14.5016Z"
    fill="#111111"
  />
  <path
    d="M16.1755 17.0031V22.0063H19.5109C20.8925 22.0063 22.0125 20.8863 22.0125 19.5047V11.8991C22.0127 11.4659 21.8443 11.0497 21.543 10.7384L14.4569 3.07779C13.2066 1.725 11.0964 1.64194 9.74361 2.89225C9.67935 2.95166 9.61744 3.01353 9.55807 3.07779L2.48448 10.7359C2.17405 11.0485 1.99988 11.4711 2 11.9116V19.5047C2 20.8863 3.11999 22.0063 4.50156 22.0063H7.83695V17.0031C7.85255 14.7294 9.68834 12.8726 11.9048 12.8191C14.1955 12.7639 16.158 14.6523 16.1755 17.0031Z"
    fill="#111111"
  />
  <path
    d="M12.0064 14.5016C10.6249 14.5016 9.50488 15.6216 9.50488 17.0031V22.0063H14.508V17.0031C14.508 15.6216 13.388 14.5016 12.0064 14.5016Z"
    fill="#111111"
  />
</svg>
