<svg
  width="25"
  height="25"
  viewBox="0 0 25 25"
  fill="none"
  xmlns="http://www.w3.org/2000/svg"
>
  <path
    d="M12.5 21.141C11.25 21.141 10.075 20.9077 8.975 20.441C7.875 19.9743 6.921 19.337 6.113 18.529C5.30433 17.7203 4.66667 16.766 4.2 15.666C3.73333 14.566 3.5 13.391 3.5 12.141C3.5 10.891 3.73333 9.71599 4.2 8.61599C4.66667 7.51599 5.30433 6.56166 6.113 5.75299C6.921 4.94499 7.875 4.30766 8.975 3.84099C10.075 3.37432 11.25 3.14099 12.5 3.14099C13.75 3.14099 14.925 3.37432 16.025 3.84099C17.125 4.30766 18.0793 4.94499 18.888 5.75299C19.696 6.56166 20.3333 7.51599 20.8 8.61599C21.2667 9.71599 21.5 10.891 21.5 12.141C21.5 13.391 21.2667 14.566 20.8 15.666C20.3333 16.766 19.696 17.7203 18.888 18.529C18.0793 19.337 17.125 19.9743 16.025 20.441C14.925 20.9077 13.75 21.141 12.5 21.141ZM12.5 9.71599C12.6667 9.71599 12.8127 9.65766 12.938 9.54099C13.0627 9.42432 13.125 9.27432 13.125 9.09099C13.125 8.92432 13.0627 8.78266 12.938 8.66599C12.8127 8.54932 12.6667 8.49099 12.5 8.49099C12.3333 8.49099 12.1873 8.54932 12.062 8.66599C11.9373 8.78266 11.875 8.92432 11.875 9.09099C11.875 9.27432 11.9373 9.42432 12.062 9.54099C12.1873 9.65766 12.3333 9.71599 12.5 9.71599ZM12 16.641H13V11.141H12V16.641Z"
    fill="#111111"
  />
</svg>
