<svg
  width="24"
  height="24"
  viewBox="0 0 24 24"
  fill="none"
  xmlns="http://www.w3.org/2000/svg"
>
  <path
    d="M17.8333 5.33333H16.9167C16.7233 4.39284 16.2115 3.54779 15.4677 2.9406C14.7239 2.33341 13.7935 2.00121 12.8333 2L11.1667 2C10.2065 2.00121 9.2761 2.33341 8.53229 2.9406C7.78848 3.54779 7.27675 4.39284 7.08333 5.33333H6.16667C5.062 5.33466 4.00296 5.77407 3.22185 6.55518C2.44073 7.3363 2.00132 8.39534 2 9.5L2 12H22V9.5C21.9987 8.39534 21.5593 7.3363 20.7782 6.55518C19.997 5.77407 18.938 5.33466 17.8333 5.33333ZM8.82 5.33333C8.99174 4.84758 9.30936 4.42674 9.72942 4.12841C10.1495 3.83007 10.6514 3.6688 11.1667 3.66667H12.8333C13.3485 3.6688 13.8505 3.83007 14.2706 4.12841C14.6906 4.42674 15.0083 4.84758 15.18 5.33333H8.82Z"
    fill="#111111"
  />
  <path
    d="M12.8333 14.5C12.8333 14.721 12.7455 14.933 12.5893 15.0892C12.433 15.2455 12.221 15.3333 12 15.3333C11.779 15.3333 11.567 15.2455 11.4107 15.0892C11.2545 14.933 11.1667 14.721 11.1667 14.5V13.6667H2V17.8333C2.00132 18.938 2.44073 19.997 3.22185 20.7781C4.00296 21.5593 5.062 21.9987 6.16667 22H17.8333C18.938 21.9987 19.997 21.5593 20.7782 20.7781C21.5593 19.997 21.9987 18.938 22 17.8333V13.6667H12.8333V14.5Z"
    fill="#111111"
  />
</svg>
