<svg
  width="24"
  height="24"
  viewBox="0 0 24 24"
  fill="none"
  xmlns="http://www.w3.org/2000/svg"
>
  <path
    d="M21.7491 3.43204L6.32422 18.8528C6.65769 19.0153 7.02345 19.1007 7.3944 19.1026H10.0361C10.2571 19.102 10.4691 19.1899 10.625 19.3466L12.0566 20.7775C12.833 21.5592 13.8889 21.9992 14.9906 22C15.4455 21.9996 15.8973 21.9251 16.3282 21.7794C17.8136 21.2923 18.894 20.0046 19.1157 18.4572L21.9298 5.09022C22.0642 4.53325 22.0003 3.94692 21.7491 3.43204Z"
    fill="#111111"
  />
  <path
    d="M18.9343 2.0645L5.59985 4.87367C3.32145 5.18669 1.72819 7.28745 2.04121 9.56585C2.16484 10.4656 2.57924 11.3004 3.22128 11.9427L4.6521 13.3736C4.80849 13.5299 4.89629 13.742 4.89613 13.9632V16.6049C4.89804 16.9759 4.98346 17.3417 5.14598 17.6751L20.5683 2.25025C20.0615 2.00118 19.4841 1.93556 18.9343 2.0645Z"
    fill="#111111"
  />
</svg>
