<svg
  width="25"
  height="25"
  viewBox="0 0 25 25"
  fill="none"
  xmlns="http://www.w3.org/2000/svg"
>
  <path
    d="M16.45 22.141L12.2 17.891L13.6 16.491L16.45 19.341L22.1 13.691L23.5 15.091L16.45 22.141ZM4.5 20.141C3.95 20.141 3.47933 19.9453 3.088 19.554C2.696 19.162 2.5 18.691 2.5 18.141V6.14099C2.5 5.59099 2.696 5.12032 3.088 4.72899C3.47933 4.33699 3.95 4.14099 4.5 4.14099H20.5C21.05 4.14099 21.521 4.33699 21.913 4.72899C22.3043 5.12032 22.5 5.59099 22.5 6.14099V10.491L16.475 16.516L13.6 13.641L9.375 17.866L11.65 20.141H4.5ZM12.5 13.141L20.5 8.14099V6.14099L12.5 11.141L4.5 6.14099V8.14099L12.5 13.141Z"
    fill="#111111"
  />
</svg>
