<svg
  width="25"
  height="25"
  viewBox="0 0 25 25"
  fill="none"
  xmlns="http://www.w3.org/2000/svg"
>
  <path
    d="M19.5 8.14099C18.6667 8.14099 17.9583 7.84932 17.375 7.26599C16.7917 6.68266 16.5 5.97432 16.5 5.14099C16.5 4.30766 16.7917 3.59932 17.375 3.01599C17.9583 2.43266 18.6667 2.14099 19.5 2.14099C20.3333 2.14099 21.0417 2.43266 21.625 3.01599C22.2083 3.59932 22.5 4.30766 22.5 5.14099C22.5 5.97432 22.2083 6.68266 21.625 7.26599C21.0417 7.84932 20.3333 8.14099 19.5 8.14099ZM4.5 20.141C3.95 20.141 3.47933 19.9453 3.088 19.554C2.696 19.162 2.5 18.691 2.5 18.141V6.14099C2.5 5.59099 2.696 5.12032 3.088 4.72899C3.47933 4.33699 3.95 4.14099 4.5 4.14099H14.6C14.5333 4.47432 14.5 4.80766 14.5 5.14099C14.5 5.47432 14.5333 5.80766 14.6 6.14099C14.7167 6.67432 14.9083 7.16999 15.175 7.62799C15.4417 8.08666 15.7667 8.49099 16.15 8.84099L12.5 11.141L4.5 6.14099V8.14099L12.5 13.141L17.775 9.84099C18.0583 9.94099 18.3417 10.016 18.625 10.066C18.9083 10.116 19.2 10.141 19.5 10.141C20.0333 10.141 20.5583 10.0577 21.075 9.89099C21.5917 9.72432 22.0667 9.47432 22.5 9.14099V18.141C22.5 18.691 22.3043 19.162 21.913 19.554C21.521 19.9453 21.05 20.141 20.5 20.141H4.5Z"
    fill="#111111"
  />
</svg>
