<svg
  width="24"
  height="24"
  viewBox="0 0 24 24"
  fill="none"
  xmlns="http://www.w3.org/2000/svg"
>
  <path
    d="M2.5 10.141C2.5 8.67432 2.796 7.28699 3.388 5.97899C3.97933 4.67032 4.825 3.54099 5.925 2.59099L7.35 3.99099C6.45 4.77432 5.75 5.69499 5.25 6.75299C4.75 7.81166 4.5 8.94099 4.5 10.141H2.5ZM20.5 10.141C20.5 8.94099 20.25 7.81166 19.75 6.75299C19.25 5.69499 18.55 4.77432 17.65 3.99099L19.075 2.59099C20.175 3.54099 21.021 4.67032 21.613 5.97899C22.2043 7.28699 22.5 8.67432 22.5 10.141H20.5ZM4.5 19.141V17.141H6.5V10.141C6.5 8.75766 6.91667 7.52832 7.75 6.45299C8.58333 5.37832 9.66667 4.67432 11 4.34099V3.64099C11 3.22432 11.146 2.87032 11.438 2.57899C11.7293 2.28699 12.0833 2.14099 12.5 2.14099C12.9167 2.14099 13.2707 2.28699 13.562 2.57899C13.854 2.87032 14 3.22432 14 3.64099V4.34099C15.3333 4.67432 16.4167 5.37832 17.25 6.45299C18.0833 7.52832 18.5 8.75766 18.5 10.141V17.141H20.5V19.141H4.5ZM12.5 22.141C11.95 22.141 11.4793 21.9453 11.088 21.554C10.696 21.162 10.5 20.691 10.5 20.141H14.5C14.5 20.691 14.3043 21.162 13.913 21.554C13.521 21.9453 13.05 22.141 12.5 22.141Z"
    fill="#111111"
  />
</svg>
