<svg
  width="24"
  height="24"
  viewBox="0 0 24 24"
  fill="none"
  xmlns="http://www.w3.org/2000/svg"
>
  <path
    d="M8.825 12.95H9.7V10.95H10.825C11.075 10.95 11.2833 10.8627 11.45 10.688C11.6167 10.5127 11.7 10.3 11.7 10.05V8.95C11.7 8.7 11.6167 8.48733 11.45 8.312C11.2833 8.13733 11.075 8.05 10.825 8.05H8.825V12.95ZM9.7 10.05V8.95H10.825V10.05H9.7ZM12.725 12.95H14.7C14.95 12.95 15.1583 12.8627 15.325 12.688C15.4917 12.5127 15.575 12.3 15.575 12.05V8.95C15.575 8.7 15.4917 8.48733 15.325 8.312C15.1583 8.13733 14.95 8.05 14.7 8.05H12.725V12.95ZM13.625 12.05V8.95H14.7V12.05H13.625ZM16.7 12.95H17.575V10.95H18.775V10.05H17.575V8.95H18.775V8.05H16.7V12.95ZM8.05 17.5C7.55 17.5 7.125 17.325 6.775 16.975C6.425 16.625 6.25 16.2 6.25 15.7V4.3C6.25 3.8 6.425 3.375 6.775 3.025C7.125 2.675 7.55 2.5 8.05 2.5H19.45C19.95 2.5 20.375 2.675 20.725 3.025C21.075 3.375 21.25 3.8 21.25 4.3V15.7C21.25 16.2 21.075 16.625 20.725 16.975C20.375 17.325 19.95 17.5 19.45 17.5H8.05ZM4.55 21C4.05 21 3.625 20.825 3.275 20.475C2.925 20.125 2.75 19.7 2.75 19.2V6.3H4.25V19.2C4.25 19.2833 4.27933 19.3543 4.338 19.413C4.396 19.471 4.46667 19.5 4.55 19.5H17.45V21H4.55Z"
    fill="#111111"
  />
</svg>
