<svg
  width="24"
  height="24"
  viewBox="0 0 24 24"
  fill="none"
  xmlns="http://www.w3.org/2000/svg"
>
  <path
    d="M12 21.5C10.7 21.5 9.47083 21.25 8.3125 20.75C7.15417 20.25 6.14583 19.5708 5.2875 18.7125C4.42917 17.8542 3.75 16.8458 3.25 15.6875C2.75 14.5292 2.5 13.3 2.5 12C2.5 10.7 2.75 9.47083 3.25 8.3125C3.75 7.15417 4.42917 6.14583 5.2875 5.2875C6.14583 4.42917 7.15417 3.75 8.3125 3.25C9.47083 2.75 10.7 2.5 12 2.5C13.3 2.5 14.5292 2.75 15.6875 3.25C16.8458 3.75 17.8542 4.42917 18.7125 5.2875C19.5708 6.14583 20.25 7.15417 20.75 8.3125C21.25 9.47083 21.5 10.7 21.5 12C21.5 13.3 21.25 14.5292 20.75 15.6875C20.25 16.8458 19.5708 17.8542 18.7125 18.7125C17.8542 19.5708 16.8458 20.25 15.6875 20.75C14.5292 21.25 13.3 21.5 12 21.5ZM15.75 16.625L16.6 15.775L12.625 11.775V6.75H11.5V12.225L15.75 16.625Z"
    fill="#111111"
  />
</svg>
