<svg
  width="25"
  height="25"
  viewBox="0 0 24 24"
  fill="none"
  xmlns="http://www.w3.org/2000/svg"
>
  <path
    d="M17.788 10.6384C17.5685 10.6384 17.3765 10.5605 17.2119 10.4047C17.0473 10.2496 16.9651 10.0532 16.9651 9.81546C16.9651 9.57772 17.0473 9.38095 17.2119 9.22514C17.3765 9.07006 17.5685 8.99252 17.788 8.99252H22.177C22.4148 8.99252 22.6112 9.07006 22.7662 9.22514C22.9221 9.38095 23 9.57772 23 9.81546C23 10.0532 22.9221 10.2496 22.7662 10.4047C22.6112 10.5605 22.4148 10.6384 22.177 10.6384H17.788ZM9.22939 11.6808C8.16871 11.6808 7.26347 11.3011 6.51368 10.5418C5.76389 9.78328 5.38899 8.88279 5.38899 7.8404C5.38899 6.77972 5.76389 5.87448 6.51368 5.12469C7.26347 4.3749 8.16871 4 9.22939 4C10.2901 4 11.1953 4.3749 11.9451 5.12469C12.6949 5.87448 13.0698 6.77972 13.0698 7.8404C13.0698 8.88279 12.6949 9.78328 11.9451 10.5418C11.1953 11.3011 10.2901 11.6808 9.22939 11.6808ZM1.9875 20.0199C1.71318 20.0199 1.47983 19.9285 1.28745 19.7456C1.09579 19.5628 0.999964 19.325 0.999964 19.0324V17.5786C0.999964 17.0482 1.14627 16.5544 1.43887 16.0973C1.73147 15.6401 2.12465 15.2835 2.61842 15.0274C3.69739 14.4971 4.79026 14.0992 5.89702 13.8336C7.00306 13.5688 8.11385 13.4364 9.22939 13.4364C10.3449 13.4364 11.4561 13.5688 12.5629 13.8336C13.6689 14.0992 14.7614 14.4971 15.8404 15.0274C16.3341 15.2835 16.7273 15.6401 17.0199 16.0973C17.3125 16.5544 17.4588 17.0482 17.4588 17.5786V19.0324C17.4588 19.325 17.363 19.5628 17.1713 19.7456C16.979 19.9285 16.7456 20.0199 16.4713 20.0199H1.9875Z"
    fill="#111111"
  />
</svg>
