<svg
  width="24"
  height="24"
  viewBox="0 0 24 24"
  fill="none"
  xmlns="http://www.w3.org/2000/svg"
>
  <path
    d="M12 2C6.475 2 2 6.475 2 12C2 17.525 6.475 22 12 22C17.525 22 22 17.525 22 12C22 6.475 17.525 2 12 2ZM12 6.375C14.075 6.375 15.75 8.05 15.75 10.125C15.75 12.2 14.075 13.875 12 13.875C9.925 13.875 8.25 12.2 8.25 10.125C8.25 8.05 9.925 6.375 12 6.375ZM12 20.125C9.4375 20.125 7.1625 18.9375 5.6625 17.075C7.475 15.85 9.65 15.125 12 15.125C14.35 15.125 16.525 15.85 18.3375 17.075C16.8375 18.9375 14.5625 20.125 12 20.125Z"
    fill="#111111"
  />
</svg>
