<svg
  width="24"
  height="24"
  viewBox="0 0 24 24"
  fill="none"
  xmlns="http://www.w3.org/2000/svg"
>
  <path
    d="M19.4254 20.45C17.4921 20.45 15.5714 19.9873 13.6634 19.062C11.7547 18.1373 10.0504 16.925 8.55039 15.425C7.05039 13.925 5.83806 12.225 4.91339 10.325C3.98806 8.425 3.52539 6.5 3.52539 4.55C3.52539 4.25 3.62539 4 3.82539 3.8C4.02539 3.6 4.27539 3.5 4.57539 3.5H7.82539C8.09206 3.5 8.32106 3.579 8.51239 3.737C8.70439 3.89567 8.82539 4.1 8.87539 4.35L9.45039 7.3C9.48372 7.55 9.47539 7.775 9.42539 7.975C9.37539 8.175 9.26706 8.35 9.10039 8.5L6.82539 10.75C7.60872 12.0833 8.54606 13.2917 9.63739 14.375C10.7294 15.4583 11.9671 16.4 13.3504 17.2L15.5754 14.95C15.7421 14.7833 15.9381 14.6667 16.1634 14.6C16.3881 14.5333 16.6171 14.5167 16.8504 14.55L19.6254 15.125C19.8754 15.175 20.0797 15.2917 20.2384 15.475C20.3964 15.6583 20.4754 15.8833 20.4754 16.15V19.4C20.4754 19.7 20.3754 19.95 20.1754 20.15C19.9754 20.35 19.7254 20.45 19.4254 20.45Z"
    fill="#111111"
  />
</svg>
