<svg
  width="24"
  height="24"
  viewBox="0 0 24 24"
  fill="none"
  xmlns="http://www.w3.org/2000/svg"
>
  <path
    d="M6.5498 7.475V3.8H17.4498V7.475H6.5498ZM18.1498 11.7C18.3665 11.7 18.5581 11.6208 18.7248 11.4625C18.8915 11.3042 18.9748 11.1083 18.9748 10.875C18.9748 10.6583 18.8915 10.4708 18.7248 10.3125C18.5581 10.1542 18.3665 10.075 18.1498 10.075C17.9331 10.075 17.7456 10.1542 17.5873 10.3125C17.429 10.4708 17.3498 10.6583 17.3498 10.875C17.3498 11.1083 17.429 11.3042 17.5873 11.4625C17.7456 11.6208 17.9331 11.7 18.1498 11.7ZM7.6748 19.375H16.3248V14.5H7.6748V19.375ZM6.5498 20.5V16.2H2.7998V10.4C2.7998 9.76667 3.0123 9.2375 3.4373 8.8125C3.8623 8.3875 4.39147 8.175 5.0248 8.175H18.9748C19.6081 8.175 20.1373 8.3875 20.5623 8.8125C20.9873 9.2375 21.1998 9.76667 21.1998 10.4V16.2H17.4498V20.5H6.5498Z"
    fill="#111111"
  />
</svg>
