<svg
  width="24"
  height="24"
  viewBox="0 0 24 24"
  fill="none"
  xmlns="http://www.w3.org/2000/svg"
>
  <path
    d="M6.3 21.5C5.8 21.5 5.375 21.325 5.025 20.975C4.675 20.625 4.5 20.2 4.5 19.7V4.3C4.5 3.8 4.675 3.375 5.025 3.025C5.375 2.675 5.8 2.5 6.3 2.5H14.25L19.5 7.75V19.7C19.5 20.2 19.325 20.625 18.975 20.975C18.625 21.325 18.2 21.5 17.7 21.5H6.3ZM11.425 18.625H12.925V17.625H14.175C14.3917 17.625 14.571 17.5543 14.713 17.413C14.8543 17.271 14.925 17.0917 14.925 16.875V13.875C14.925 13.6583 14.8543 13.479 14.713 13.337C14.571 13.1957 14.3917 13.125 14.175 13.125H10.925V11.625H14.925V10.125H12.925V9.125H11.425V10.125H10.175C9.95833 10.125 9.77933 10.1957 9.638 10.337C9.496 10.479 9.425 10.6583 9.425 10.875V13.875C9.425 14.0917 9.496 14.2707 9.638 14.412C9.77933 14.554 9.95833 14.625 10.175 14.625H13.425V16.125H9.425V17.625H11.425V18.625ZM13.625 7.75H17.375L13.625 4V7.75Z"
    fill="#111111"
  />
</svg>
