<svg
  width="24"
  height="24"
  viewBox="0 0 24 24"
  fill="none"
  xmlns="http://www.w3.org/2000/svg"
>
  <path
    d="M18.6667 2H5.33333C4.44928 2 3.60143 2.35119 2.97631 2.97631C2.35119 3.60143 2 4.44928 2 5.33333L2 15.3333C2 16.2174 2.35119 17.0652 2.97631 17.6904C3.60143 18.3155 4.44928 18.6667 5.33333 18.6667H7.75L11.4592 21.8025C11.6096 21.9298 11.8004 21.9997 11.9975 21.9997C12.1946 21.9997 12.3854 21.9298 12.5358 21.8025L16.25 18.6667H18.6667C19.5507 18.6667 20.3986 18.3155 21.0237 17.6904C21.6488 17.0652 22 16.2174 22 15.3333V5.33333C22 4.44928 21.6488 3.60143 21.0237 2.97631C20.3986 2.35119 19.5507 2 18.6667 2V2ZM7.83333 6.16667H12C12.221 6.16667 12.433 6.25446 12.5893 6.41074C12.7455 6.56702 12.8333 6.77899 12.8333 7C12.8333 7.22101 12.7455 7.43297 12.5893 7.58926C12.433 7.74554 12.221 7.83333 12 7.83333H7.83333C7.61232 7.83333 7.40036 7.74554 7.24408 7.58926C7.0878 7.43297 7 7.22101 7 7C7 6.77899 7.0878 6.56702 7.24408 6.41074C7.40036 6.25446 7.61232 6.16667 7.83333 6.16667ZM16.1667 14.5H7.83333C7.61232 14.5 7.40036 14.4122 7.24408 14.2559C7.0878 14.0996 7 13.8877 7 13.6667C7 13.4457 7.0878 13.2337 7.24408 13.0774C7.40036 12.9211 7.61232 12.8333 7.83333 12.8333H16.1667C16.3877 12.8333 16.5996 12.9211 16.7559 13.0774C16.9122 13.2337 17 13.4457 17 13.6667C17 13.8877 16.9122 14.0996 16.7559 14.2559C16.5996 14.4122 16.3877 14.5 16.1667 14.5ZM16.1667 11.1667H7.83333C7.61232 11.1667 7.40036 11.0789 7.24408 10.9226C7.0878 10.7663 7 10.5543 7 10.3333C7 10.1123 7.0878 9.90036 7.24408 9.74408C7.40036 9.5878 7.61232 9.5 7.83333 9.5H16.1667C16.3877 9.5 16.5996 9.5878 16.7559 9.74408C16.9122 9.90036 17 10.1123 17 10.3333C17 10.5543 16.9122 10.7663 16.7559 10.9226C16.5996 11.0789 16.3877 11.1667 16.1667 11.1667Z"
    fill="#111111"
  />
</svg>
