<svg
  width="32"
  height="32"
  viewBox="0 0 32 32"
  fill="none"
  xmlns="http://www.w3.org/2000/svg"
>
  <path
    d="M29.3346 15.9993C29.3346 8.63555 23.3651 2.66602 16.0013 2.66602C8.63751 2.66602 2.66797 8.63555 2.66797 15.9993C2.66797 23.3631 8.63751 29.3327 16.0013 29.3327C23.3651 29.3327 29.3346 23.3631 29.3346 15.9993ZM9.96037 16.3728C9.60535 16.0178 9.57308 15.4623 9.86355 15.0708L9.96037 14.9586L15.2948 9.62419C15.6499 9.26912 16.2055 9.23689 16.597 9.52747L16.7092 9.62433L22.0425 14.9597C22.4329 15.3503 22.4328 15.9835 22.0422 16.3739C21.6871 16.7289 21.1316 16.761 20.7401 16.4705L20.628 16.3736L17.0004 12.7444L17.0008 21.6667C17.0008 22.1729 16.6246 22.5913 16.1365 22.6575L16.0008 22.6667C15.4946 22.6667 15.0762 22.2905 15.0099 21.8024L15.0008 21.6667L15.0004 12.7471L11.3746 16.3728C11.0196 16.7279 10.464 16.7601 10.0725 16.4697L9.96037 16.3728Z"
    fill="#111111"
  />
</svg>
