<svg
  width="24"
  height="24"
  viewBox="0 0 24 24"
  fill="none"
  xmlns="http://www.w3.org/2000/svg"
>
  <path
    d="M5.33332 2H7.83332C9.67426 2 11.1666 3.49238 11.1666 5.33332V7.83332C11.1666 9.67426 9.67426 11.1666 7.83332 11.1666H5.33332C3.49238 11.1667 2 9.6743 2 7.83332V5.33332C2 3.49238 3.49238 2 5.33332 2Z"
    fill="#111111"
  />
  <path
    d="M5.33332 12.8333H7.83332C9.67426 12.8333 11.1666 14.3257 11.1666 16.1666V18.6666C11.1666 20.5076 9.67426 22 7.83332 22H5.33332C3.49238 22 2 20.5076 2 18.6667V16.1667C2 14.3257 3.49238 12.8333 5.33332 12.8333Z"
    fill="#111111"
  />
  <path
    d="M16.1663 12.8333H18.6663C20.5073 12.8333 21.9996 14.3257 21.9996 16.1666V18.6666C21.9996 20.5076 20.5073 22 18.6663 22H16.1663C14.3254 22 12.833 20.5076 12.833 18.6667V16.1667C12.833 14.3257 14.3254 12.8333 16.1663 12.8333Z"
    fill="#111111"
  />
  <path
    d="M13.6663 7.83333H16.1663V10.3333C16.1663 10.7936 16.5394 11.1667 16.9996 11.1667C17.4599 11.1667 17.833 10.7936 17.833 10.3333V7.83333H20.333C20.7932 7.83333 21.1663 7.46025 21.1663 7.00001C21.1663 6.53978 20.7932 6.16669 20.333 6.16669H17.833V3.66669C17.833 3.20646 17.4599 2.83337 16.9996 2.83337C16.5394 2.83337 16.1663 3.20646 16.1663 3.66669V6.16669H13.6663C13.2061 6.16669 12.833 6.53978 12.833 7.00001C12.833 7.46025 13.2061 7.83333 13.6663 7.83333Z"
    fill="#111111"
  />
</svg>
